<svg id="Layer_5" enable-background="new 0 0 64 64" height="512" viewBox="0 0 64 64" width="512" xmlns="http://www.w3.org/2000/svg"><g><g><g><path d="m10 34v8h-4c-2.21 0-4-1.79-4-4v-32c0 2.21 1.79 4 4 4h4z" fill="#f0d0b4"/></g><g><path d="m10 34v-24h-4c-2.21 0-4-1.79-4-4 0-1.1.45-2.1 1.17-2.83.73-.72 1.73-1.17 2.83-1.17h42v8c-5.52 0-10 4.48-10 10 0 .69.07 1.36.2 2h-.2c-2.21 0-4 1.79-4 4v8h-10-6.82z" fill="#e6e9ed"/></g><g><path d="m14 6h18v8h-18z" fill="#ff826e"/></g><g><path d="m34 51.17v6.83h-7l-.81-2.54c-1.06-.3-2.07-.72-3.02-1.24l-2.36 1.21-4.25-4.24 1.22-2.36c-.52-.95-.94-1.96-1.24-3.02l-2.54-.81v-6l2.54-.81c.3-1.06.72-2.07 1.24-3.02l-.6-1.17h6.82c-2.43 1.82-4 4.73-4 8 0 5.52 4.48 10 10 10 1.42 0 2.78-.3 4-.83z" fill="#b4dd7f"/></g><g><path d="m62 26v32c0 2.21-1.79 4-4 4h-20c-2.21 0-4-1.79-4-4v-6.83-17.17-8c0-2.21 1.79-4 4-4h.2c.3 1.48.93 2.84 1.81 4h-2.01v8h20v-8h-2.01c.88-1.16 1.51-2.52 1.81-4h.2c2.21 0 4 1.79 4 4z" fill="#969faa"/></g><g><path d="m54 46h4v12h-4z" fill="#ff826e"/></g><g><path d="m54 38h4v4h-4z" fill="#ff826e"/></g><g><path d="m46 38h4v4h-4z" fill="#ff826e"/></g><g><path d="m46 46h4v4h-4z" fill="#ff826e"/></g><g><path d="m46 54h4v4h-4z" fill="#ff826e"/></g><g><path d="m38 54h4v4h-4z" fill="#ff826e"/></g><g><path d="m38 46h4v4h-4z" fill="#ff826e"/></g><g><path d="m38 38h4v4h-4z" fill="#ff826e"/></g><g><path d="m58 26v8h-20v-8h2.01c1.82 2.43 4.72 4 7.99 4s6.17-1.57 7.99-4z" fill="#69d6f4"/></g><g><path d="m58 20c0 .69-.07 1.36-.2 2-.3 1.48-.93 2.84-1.81 4-1.82 2.43-4.72 4-7.99 4s-6.17-1.57-7.99-4c-.88-1.16-1.51-2.52-1.81-4-.13-.64-.2-1.31-.2-2 0-5.52 4.48-10 10-10s10 4.48 10 10z" fill="#fcd770"/></g></g><g><path d="m47 13v2.145c-1.155.366-2 1.435-2 2.709 0 1.087.604 2.066 1.578 2.553l1.95.974c.291.146.472.439.472.765 0 .471-.383.854-.854.854h-.292c-.471 0-.854-.383-.854-.854v-.146h-2v.146c0 1.274.845 2.343 2 2.709v2.145h2v-2.145c1.155-.366 2-1.435 2-2.709 0-1.087-.604-2.066-1.578-2.553l-1.95-.974c-.291-.146-.472-.439-.472-.765 0-.471.383-.854.854-.854h.292c.471 0 .854.383.854.854v.146h2v-.146c0-1.274-.845-2.343-2-2.709v-2.145z"/><path d="m58.945 21.096c.035-.361.055-.726.055-1.096 0-5.728-4.402-10.442-10-10.949v-8.051h-43c-2.757 0-5 2.243-5 5v32c0 2.757 2.243 5 5 5h5v-8h5.568l.085.165c-.363.71-.671 1.457-.919 2.229l-2.734.877v7.459l2.734.876c.249.773.556 1.52.919 2.229l-1.312 2.548 5.274 5.274 2.549-1.312c.71.363 1.457.671 2.229.919l.878 2.736h6.831c.465 2.279 2.484 4 4.899 4h20c2.757 0 5-2.243 5-5v-32c-.001-2.433-1.75-4.461-4.056-4.904zm-1.945-1.096c0 4.962-4.038 9-9 9s-9-4.038-9-9 4.038-9 9-9 9 4.038 9 9zm0 7v6h-18v-6h.521c2.019 2.441 5.07 4 8.479 4s6.459-1.559 8.479-4zm-48 14h-3c-1.654 0-3-1.346-3-3v-28.002c.836.628 1.875 1.002 3 1.002h3zm17.975 13.644-.517-.146c-.986-.279-1.927-.667-2.796-1.153l-.468-.262-2.195 1.129-3.211-3.211 1.13-2.195-.263-.469c-.486-.867-.874-1.808-1.153-2.795l-.146-.517-2.356-.754v-4.541l2.356-.755.146-.517c.279-.986.667-1.927 1.153-2.796l.262-.468-.099-.194h2.692c-1.615 1.947-2.51 4.393-2.51 7 0 6.065 4.935 11 11 11 1.027 0 2.029-.151 3-.427v4.427h-5.271zm6.025-4.166c-.96.34-1.965.522-3 .522-4.962 0-9-4.038-9-9 0-2.753 1.228-5.282 3.363-7h8.637zm0-24.478v7h-22v-24h-5c-1.654 0-3-1.346-3-3s1.346-3 3-3h41v6.051c-5.598.507-10 5.221-10 10.949 0 .37.02.735.055 1.096-2.306.443-4.055 2.471-4.055 4.904zm28 32c0 1.654-1.346 3-3 3h-20c-1.654 0-3-1.346-3-3v-32c0-1.463 1.054-2.68 2.441-2.943.196.677.457 1.326.773 1.943h-1.214v10h22v-10h-1.214c.317-.617.577-1.266.773-1.943 1.387.263 2.441 1.48 2.441 2.943z"/><path d="m53 59h6v-14h-6zm2-12h2v10h-2z"/><path d="m45 59h6v-6h-6zm2-4h2v2h-2z"/><path d="m37 59h6v-6h-6zm2-4h2v2h-2z"/><path d="m45 51h6v-6h-6zm2-4h2v2h-2z"/><path d="m37 51h6v-6h-6zm2-4h2v2h-2z"/><path d="m45 43h6v-6h-6zm2-4h2v2h-2z"/><path d="m53 43h6v-6h-6zm2-4h2v2h-2z"/><path d="m37 43h6v-6h-6zm2-4h2v2h-2z"/><path d="m13 15h20v-10h-20zm2-8h16v6h-16z"/><path d="m13 17h18v2h-18z"/><path d="m29 21h2v2h-2z"/><path d="m25 21h2v2h-2z"/><path d="m13 21h10v2h-10z"/><path d="m13 25h18v2h-18z"/><path d="m13 29h18v2h-18z"/></g></g></svg>