<?xml version="1.0" encoding="iso-8859-1"?>
<!-- Generator: Adobe Illustrator 19.0.0, SVG Export Plug-In . SVG Version: 6.00 Build 0)  -->
<svg version="1.1" id="Capa_1" xmlns="http://www.w3.org/2000/svg" xmlns:xlink="http://www.w3.org/1999/xlink" x="0px" y="0px"
	 viewBox="0 0 512.002 512.002" style="enable-background:new 0 0 512.002 512.002;" xml:space="preserve">
<rect x="219.025" y="369.424" style="fill:#9E6B57;" width="38.352" height="59.384"/>
<rect x="219.025" y="369.424" style="fill:#8C5A4B;" width="20.031" height="59.384"/>
<rect x="255.968" y="369.424" style="fill:#AD7B64;" width="36.936" height="59.384"/>
<path style="fill:#FFC850;" d="M374.355,189.849c0-66.337-54.56-119.931-121.254-118.358
	c-64.646,1.525-116.559,55.654-115.513,120.309c0.792,49.024,31.39,90.793,74.458,108.01c1.522,0.609,2.537,2.06,2.537,3.699v37.469
	h82.761v-36.823c0-1.988,1.188-3.798,3.031-4.544C343.752,282.045,374.355,239.526,374.355,189.849z"/>
<path style="fill:#F9B428;" d="M232.047,299.811c-43.068-17.217-73.665-58.986-74.458-108.01
	c-1.007-62.267,47.107-114.761,108.406-119.918c-4.239-0.355-8.54-0.494-12.894-0.391c-64.646,1.525-116.559,55.654-115.513,120.309
	c0.792,49.024,31.39,90.793,74.458,108.01c1.522,0.608,2.537,2.06,2.537,3.699v37.469h20.001v-37.469
	C234.584,301.87,233.569,300.419,232.047,299.811z"/>
<path style="fill:#E4EAF8;" d="M292.9,428.81l-30.413,70.858c-2.897,6.749-10.15,6.749-13.047,0l-30.413-70.858H292.9L292.9,428.81z
	"/>
<path style="fill:#D8DCE5;" d="M239.055,428.81h-20.027l30.413,70.859c2.897,6.749,10.15,6.749,13.046,0l3.49-8.132L239.055,428.81z
	"/>
<path style="fill:#707487;" d="M233.818,463.27l15.622,36.398c2.897,6.749,10.15,6.749,13.047,0l15.622-36.398H233.818z"/>
<path style="fill:#5E6377;" d="M262.487,499.668l3.49-8.132l-12.132-28.266h-20.026l15.622,36.398
	C252.318,506.372,259.574,506.456,262.487,499.668z"/>
<path style="fill:#008CFF;" d="M302.153,336.627h-92.378c-5.82,0-10.583,4.762-10.583,10.583v13.405
	c0,5.82,4.762,10.583,10.583,10.583h92.377c5.82,0,10.583-4.762,10.583-10.583v-13.405
	C312.735,341.389,307.973,336.627,302.153,336.627z"/>
<path style="fill:#FC932B;" d="M282.213,195.764h-52.499c-5.834,0-10.608,4.773-10.608,10.608v13.438
	c0,5.834,4.773,10.608,10.608,10.608h52.499c5.834,0,10.609-4.773,10.609-10.608v-13.438
	C292.822,200.537,288.048,195.764,282.213,195.764z"/>
<path style="fill:#0385DD;" d="M302.153,351.196h-92.378c-4.669,0-8.651-3.067-10.046-7.284c-0.344,1.04-0.537,2.146-0.537,3.298
	v13.405c0,5.82,4.762,10.583,10.583,10.583h92.377c5.82,0,10.583-4.762,10.583-10.583v-13.405c0-1.151-0.193-2.258-0.537-3.298
	C310.803,348.128,306.821,351.196,302.153,351.196z"/>
<path style="fill:#E87B18;" d="M282.213,210.417h-52.499c-4.689,0-8.689-3.086-10.079-7.326c-0.34,1.035-0.529,2.136-0.529,3.281
	v13.438c0,5.834,4.773,10.608,10.608,10.608h52.499c5.834,0,10.609-4.773,10.609-10.608v-13.438c0-1.145-0.189-2.246-0.529-3.281
	C290.902,207.329,286.903,210.417,282.213,210.417z"/>
<path d="M117.854,190.839c0-4.142-3.358-7.5-7.5-7.5H72.662c-4.142,0-7.5,3.358-7.5,7.5c0,4.142,3.358,7.5,7.5,7.5h37.69
	C114.496,198.34,117.854,194.982,117.854,190.839z"/>
<path d="M439.34,183.339h-37.69c-4.143,0-7.5,3.358-7.5,7.5c0,4.142,3.357,7.5,7.5,7.5h37.69c4.143,0,7.5-3.358,7.5-7.5
	C446.841,186.697,443.484,183.339,439.34,183.339z"/>
<path d="M256.002,52.691c4.143,0,7.5-3.358,7.5-7.5V7.5c0-4.142-3.357-7.5-7.5-7.5c-4.143,0-7.5,3.358-7.5,7.5v37.69
	C248.501,49.334,251.858,52.691,256.002,52.691z"/>
<path d="M126.115,257.169l-32.641,18.845c-3.587,2.071-4.816,6.658-2.745,10.246c2.071,3.588,6.658,4.817,10.246,2.745
	l32.641-18.845c3.587-2.071,4.816-6.658,2.745-10.246C134.29,256.326,129.703,255.097,126.115,257.169z"/>
<path d="M385.886,124.511l32.642-18.845c3.587-2.071,4.816-6.658,2.745-10.246c-2.07-3.587-6.66-4.816-10.246-2.745l-32.642,18.845
	c-3.587,2.071-4.816,6.658-2.745,10.246C377.711,125.355,382.302,126.581,385.886,124.511z"/>
<path d="M325.075,71.2c3.592,2.073,8.178,0.838,10.246-2.745l18.845-32.641c2.071-3.587,0.842-8.175-2.745-10.246
	c-3.59-2.072-8.176-0.842-10.246,2.745L322.33,60.954C320.259,64.542,321.488,69.129,325.075,71.2z"/>
<path d="M176.682,68.454c2.071,3.588,6.658,4.817,10.246,2.745c3.587-2.071,4.816-6.658,2.745-10.246l-18.845-32.641
	c-2.072-3.587-6.659-4.816-10.246-2.745c-3.587,2.071-4.816,6.658-2.745,10.246L176.682,68.454z"/>
<path d="M418.528,276.014l-32.642-18.845c-3.589-2.071-8.176-0.842-10.246,2.745c-2.071,3.587-0.842,8.175,2.745,10.246
	l32.642,18.845c3.592,2.073,8.178,0.838,10.246-2.745C423.344,282.671,422.114,278.084,418.528,276.014z"/>
<path d="M93.474,105.666l32.641,18.845c3.587,2.072,8.175,0.842,10.246-2.745c2.071-3.587,0.842-8.175-2.745-10.246l-32.641-18.845
	c-3.588-2.072-8.175-0.842-10.246,2.745C88.658,99.007,89.887,103.595,93.474,105.666z"/>
<path d="M380.263,210.933c0.708-4.082-2.026-7.965-6.107-8.673c-4.078-0.707-7.965,2.026-8.673,6.107
	c-6.5,37.455-32.477,69.608-67.789,83.91c-4.691,1.899-7.723,6.416-7.723,11.507v25.039h-10.626v-91.434h2.985
	c9.985,0,18.108-8.124,18.108-18.108v-13.512c0-9.985-8.124-18.108-18.108-18.108h-8.828c-4.143,0-7.5,3.358-7.5,7.5
	c0,4.142,3.357,7.5,7.5,7.5h8.828c1.685,0,3.107,1.423,3.107,3.107v13.512c0,1.685-1.423,3.107-3.107,3.107h-52.656
	c-1.685,0-3.108-1.423-3.108-3.107v-13.512c0-1.685,1.423-3.107,3.108-3.107h8.827c4.142,0,7.5-3.358,7.5-7.5
	c0-4.142-3.358-7.5-7.5-7.5h-8.827c-9.986,0-18.109,8.124-18.109,18.108v13.512c0,9.985,8.124,18.108,18.109,18.108h2.985v91.434
	h-10.626v-25.686c0-4.72-2.849-8.91-7.258-10.672c-41.737-16.685-69.174-56.486-69.901-101.397
	C143.89,130.225,192.535,79.558,253.31,78.124c57.45-1.365,106.018,40.534,112.994,97.437c0.504,4.112,4.256,7.036,8.358,6.532
	c4.111-0.504,7.035-4.246,6.531-8.358c-7.815-63.744-62.835-112.116-128.238-110.609c-68.984,1.628-124.199,59.132-123.083,128.184
	c0.812,50.191,31.013,94.756,77.158,114.192v23.538c-8.712,1.293-15.423,8.8-15.423,17.865v13.479
	c0,9.971,8.112,18.083,18.083,18.083h1.873v50.113c0,0.93,0.205,2.019,0.607,2.957v0.001c3.651,8.507,26.555,61.869,30.413,70.859
	c5.487,12.785,21.325,12.823,26.832,0l30.409-70.85c0.403-0.934,0.612-2.029,0.612-2.967v-50.113h1.872
	c9.972,0,18.083-8.112,18.083-18.083v-13.479c0-9.066-6.711-16.572-15.423-17.865v-23.539
	C344.209,288.947,372.985,252.869,380.263,210.933z M247.659,237.389h16.684v91.434h-16.684L247.659,237.389L247.659,237.389z
	 M273.204,455.541h-34.405l-8.353-19.459c15.949,0,35.158,0,51.109,0L273.204,455.541z M256.002,495.621l-10.764-25.079h21.527
	C258.569,489.64,260.317,485.566,256.002,495.621z M248.5,421.081h-21.934v-42.613H248.5V421.081z M285.438,421.081h-21.935v-42.613
	h21.935V421.081z M305.393,360.385c0,1.67-1.411,3.082-3.082,3.082c-18.525,0-73.105,0-92.619,0c-1.67,0-3.082-1.411-3.082-3.082
	v-13.479c0-1.67,1.412-3.082,3.082-3.082c9.898,0,80.595,0,92.619,0c1.671,0,3.082,1.412,3.082,3.082V360.385z"/>
<g>
</g>
<g>
</g>
<g>
</g>
<g>
</g>
<g>
</g>
<g>
</g>
<g>
</g>
<g>
</g>
<g>
</g>
<g>
</g>
<g>
</g>
<g>
</g>
<g>
</g>
<g>
</g>
<g>
</g>
</svg>
