<svg height="512" viewBox="0 0 64 64" width="512" xmlns="http://www.w3.org/2000/svg"><g id="Setting-Management"><path d="m55 9v32h-46v-32a2.006 2.006 0 0 1 2-2h42a2.006 2.006 0 0 1 2 2z" fill="#5aaae7"/><path d="m55 9v32h-35.89l32.33-34h1.56a2.006 2.006 0 0 1 2 2z" fill="#3d9ae2"/><path d="m55 41h-46l-6 12h21 16 21z" fill="#acabb1"/><path d="m47 28v-2l-2.18-.54a6.936 6.936 0 0 0 -.9-2.19l1.15-1.93-1.41-1.41-1.93 1.15a6.936 6.936 0 0 0 -2.19-.9l-.54-2.18h-2l-.54 2.18a6.167 6.167 0 0 0 -1.46.51 5.631 5.631 0 0 0 -.73.39l-1.93-1.15-1.41 1.41 1.15 1.93a6.936 6.936 0 0 0 -.9 2.19l-2.18.54v2l2.18.54a6.936 6.936 0 0 0 .9 2.19l-1.15 1.93 1.41 1.41 1.93-1.15a6.936 6.936 0 0 0 2.19.9l.54 2.18h2l.54-2.18a6.936 6.936 0 0 0 2.19-.9l1.93 1.15 1.41-1.41-1.15-1.93a6.936 6.936 0 0 0 .9-2.19zm-9 2a3 3 0 1 1 3-3 3 3 0 0 1 -3 3z" fill="#ffd422"/><circle cx="38" cy="27" fill="#ffd422" r="3"/><path d="m61 53v3a1 1 0 0 1 -1 1h-56a1 1 0 0 1 -1-1v-3z" fill="#898890"/><circle cx="38" cy="27" fill="#ff5023" r="3"/><path d="m38 49 2 4h-16l2-4z" fill="#c6c5ca"/><path d="m35 20v2l-2.18.54a6.936 6.936 0 0 1 -.9 2.19l1.15 1.93-1.41 1.41-1.93-1.15a5.631 5.631 0 0 1 -.73.39 6.167 6.167 0 0 1 -1.46.51l-.54 2.18h-2l-.54-2.18a6.936 6.936 0 0 1 -2.19-.9l-1.93 1.15-1.41-1.41 1.15-1.93a6.936 6.936 0 0 1 -.9-2.19l-2.18-.54v-2l2.18-.54a6.936 6.936 0 0 1 .9-2.19l-1.15-1.93 1.41-1.41 1.93 1.15a6.936 6.936 0 0 1 2.19-.9l.54-2.18h2l.54 2.18a6.936 6.936 0 0 1 2.19.9l1.93-1.15 1.41 1.41-1.15 1.93a6.936 6.936 0 0 1 .9 2.19z" fill="#ff9811"/><circle cx="26" cy="21" fill="#ffd422" r="3"/><path d="m61.9 52.553-5.9-11.789v-31.764a3 3 0 0 0 -3-3h-42a3 3 0 0 0 -3 3v31.764l-5.895 11.789a1 1 0 0 0 -.105.447v3a2 2 0 0 0 2 2h56a2 2 0 0 0 2-2v-3a1 1 0 0 0 -.1-.447zm-21.282-.553-1.718-3.447a1 1 0 0 0 -.9-.553h-12a1 1 0 0 0 -.895.553l-1.723 3.447h-18.764l5-10h44.764l5 10zm-2.236 0h-12.764l1-2h10.764zm-28.382-43a1 1 0 0 1 1-1h42a1 1 0 0 1 1 1v31h-44zm-6 47v-2h56v2z"/><path d="m10 48h2v2h-2z"/><path d="m14 48h2v2h-2z"/><path d="m48 48h2v2h-2z"/><path d="m52 48h2v2h-2z"/><path d="m15 44h2v2h-2z"/><path d="m11 44h2v2h-2z"/><path d="m19 44h2v2h-2z"/><path d="m23 44h2v2h-2z"/><path d="m27 44h2v2h-2z"/><path d="m31 44h2v2h-2z"/><path d="m35 44h2v2h-2z"/><path d="m39 44h2v2h-2z"/><path d="m43 44h2v2h-2z"/><path d="m47 44h2v2h-2z"/><path d="m51 44h2v2h-2z"/><path d="m18 48h4v2h-4z"/><path d="m42 48h4v2h-4z"/><path d="m26 17a4 4 0 1 0 4 4 4 4 0 0 0 -4-4zm0 6a2 2 0 1 1 2-2 2 2 0 0 1 -2 2z"/><path d="m47.24 25.029-1.6-.4a7.9 7.9 0 0 0 -.559-1.351l.852-1.429a1 1 0 0 0 -.153-1.219l-1.41-1.41a1 1 0 0 0 -1.219-.152l-1.428.851a7.9 7.9 0 0 0 -1.352-.558l-.4-1.6a1 1 0 0 0 -.971-.761h-2a1 1 0 0 0 -.971.76l-.372 1.5a.98.98 0 0 0 -.415-.233l-1.6-.4a8.018 8.018 0 0 0 -.561-1.349l.853-1.421a1 1 0 0 0 -.151-1.222l-1.414-1.414a1 1 0 0 0 -1.222-.151l-1.421.853a7.932 7.932 0 0 0 -1.349-.56l-.4-1.606a1 1 0 0 0 -.977-.757h-2a1 1 0 0 0 -.97.758l-.4 1.606a7.932 7.932 0 0 0 -1.349.56l-1.421-.853a1 1 0 0 0 -1.222.151l-1.414 1.414a1 1 0 0 0 -.151 1.222l.853 1.421a7.932 7.932 0 0 0 -.56 1.349l-1.606.4a1 1 0 0 0 -.76.972v2a1 1 0 0 0 .758.97l1.606.4a7.932 7.932 0 0 0 .56 1.349l-.853 1.421a1 1 0 0 0 .151 1.222l1.414 1.414a1 1 0 0 0 1.222.151l1.421-.853a7.932 7.932 0 0 0 1.349.56l.4 1.606a1 1 0 0 0 .972.76h2a1 1 0 0 0 .97-.758l.376-1.5a.98.98 0 0 0 .414.232l1.6.4a7.858 7.858 0 0 0 .558 1.351l-.851 1.429a1 1 0 0 0 .152 1.219l1.41 1.41a1 1 0 0 0 1.219.152l1.428-.851a7.9 7.9 0 0 0 1.352.558l.4 1.6a1 1 0 0 0 .972.758h2a1 1 0 0 0 .971-.76l.4-1.6a7.9 7.9 0 0 0 1.352-.558l1.428.851a1 1 0 0 0 1.219-.152l1.41-1.41a1 1 0 0 0 .153-1.219l-.852-1.429a7.9 7.9 0 0 0 .559-1.351l1.6-.4a1 1 0 0 0 .76-.972v-2a1 1 0 0 0 -.76-.971zm-19.916 1.819a1 1 0 0 0 -.75.733l-.355 1.419h-.438l-.355-1.419a1 1 0 0 0 -.75-.733 5.948 5.948 0 0 1 -1.876-.778 1 1 0 0 0 -1.049-.012l-1.256.754-.31-.31.754-1.256a1 1 0 0 0 -.009-1.046 5.948 5.948 0 0 1 -.778-1.873 1 1 0 0 0 -.733-.75l-1.419-.358v-.438l1.419-.355a1 1 0 0 0 .733-.75 5.948 5.948 0 0 1 .778-1.876 1 1 0 0 0 .012-1.049l-.754-1.251.31-.31 1.256.754a1 1 0 0 0 1.046-.014 5.948 5.948 0 0 1 1.873-.778 1 1 0 0 0 .75-.733l.358-1.419h.438l.355 1.419a1 1 0 0 0 .75.733 5.948 5.948 0 0 1 1.873.778 1 1 0 0 0 1.049.012l1.256-.754.31.31-.754 1.256a1 1 0 0 0 .012 1.046 5.948 5.948 0 0 1 .778 1.873 1 1 0 0 0 .733.75l1.419.358v.438l-1.419.355a1 1 0 0 0 -.733.75 5.948 5.948 0 0 1 -.778 1.876 1 1 0 0 0 -.012 1.049l.754 1.256-.31.31-1.256-.754a1 1 0 0 0 -1.049.012 5.948 5.948 0 0 1 -1.873.775zm18.676.369-1.42.352a1 1 0 0 0 -.737.761 5.914 5.914 0 0 1 -.773 1.87 1 1 0 0 0 -.009 1.04l.751 1.261-.308.309-1.262-.751a1 1 0 0 0 -1.039.009 5.875 5.875 0 0 1 -1.873.772 1 1 0 0 0 -.761.738l-.351 1.422h-.436l-.351-1.42a1 1 0 0 0 -.761-.738 5.875 5.875 0 0 1 -1.87-.772 1 1 0 0 0 -1.039-.009l-1.261.751-.31-.309.752-1.261a1 1 0 0 0 -.009-1.04 6.017 6.017 0 0 1 -.62-1.385c.017-.015.038-.023.054-.039l1.414-1.414a.986.986 0 0 0 .219-.371v.007a4.166 4.166 0 1 0 .052-.513 1.006 1.006 0 0 0 -.123-.345l-.853-1.421a8.018 8.018 0 0 0 .561-1.349l1.6-.4a1 1 0 0 0 .763-.972v-.648a5.173 5.173 0 0 1 .671-.194 1 1 0 0 0 .76-.738l.351-1.42h.436l.351 1.42a1 1 0 0 0 .761.738 5.875 5.875 0 0 1 1.873.772 1 1 0 0 0 1.039.009l1.262-.751.308.309-.751 1.261a1 1 0 0 0 .009 1.04 5.914 5.914 0 0 1 .773 1.872 1 1 0 0 0 .737.761l1.42.352zm-10-.217a2 2 0 1 1 2 2 2 2 0 0 1 -2-2z"/><path d="m36 11h2v2h-2z"/><path d="m40 11h2v2h-2z"/><path d="m44 11h2v2h-2z"/><path d="m48 11h2v2h-2z"/><path d="m15 35h2v2h-2z"/><path d="m19 35h2v2h-2z"/><path d="m23 35h2v2h-2z"/><path d="m27 35h2v2h-2z"/></g></svg>