<svg id="line" height="512" viewBox="0 0 64 64" width="512" xmlns="http://www.w3.org/2000/svg"><path d="m31 41v-4.9a5 5 0 1 0 5.9 5.9h-4.9a1 1 0 0 1 -1-1z" fill="#c4a2fc"/><path d="m54 30h-32a1 1 0 0 0 -1 1v20a1 1 0 0 0 1 1h32a1 1 0 0 0 1-1v-20a1 1 0 0 0 -1-1zm-22 18a7 7 0 1 1 7-7 7.008 7.008 0 0 1 -7 7zm17-1h-6a1 1 0 0 1 0-2h6a1 1 0 0 1 0 2zm0-5h-6a1 1 0 0 1 0-2h6a1 1 0 0 1 0 2zm0-5h-6a1 1 0 0 1 0-2h6a1 1 0 0 1 0 2z" fill="#c4a2fc"/><path d="m62 54h-3v-25a3 3 0 0 0 -3-3h-36a3 3 0 0 0 -3 3v25h-3a1 1 0 0 0 -1 1v2a5 5 0 0 0 5 5h40a5 5 0 0 0 5-5v-2a1 1 0 0 0 -1-1zm-42 5a1 1 0 1 1 1-1 1 1 0 0 1 -1 1zm4 0a1 1 0 1 1 1-1 1 1 0 0 1 -1 1zm32 0h-10a1 1 0 0 1 0-2h10a1 1 0 0 1 0 2zm1-5h-38v-25a1 1 0 0 1 1-1h36a1 1 0 0 1 1 1z" fill="#c4a2fc"/><g fill="#151a6a"><path d="m32 2h-28a3 3 0 0 0 -3 3v42a3 3 0 0 0 3 3h28a3 3 0 0 0 3-3v-42a3 3 0 0 0 -3-3zm1 45a1 1 0 0 1 -1 1h-28a1 1 0 0 1 -1-1v-42a1 1 0 0 1 1-1h28a1 1 0 0 1 1 1z"/><path d="m13.293 8.293-3.293 3.293-1.293-1.293a1 1 0 1 0 -1.414 1.414l2 2a1 1 0 0 0 1.414 0l4-4a1 1 0 0 0 -1.414-1.414z"/><path d="m28 10h-8a1 1 0 0 0 0 2h8a1 1 0 0 0 0-2z"/><path d="m13.293 18.293-3.293 3.293-1.293-1.293a1 1 0 1 0 -1.414 1.414l2 2a1 1 0 0 0 1.414 0l4-4a1 1 0 0 0 -1.414-1.414z"/><path d="m28 20h-8a1 1 0 0 0 0 2h8a1 1 0 0 0 0-2z"/><path d="m13.293 28.293-3.293 3.293-1.293-1.293a1 1 0 1 0 -1.414 1.414l2 2a1 1 0 0 0 1.414 0l4-4a1 1 0 0 0 -1.414-1.414z"/><path d="m28 30h-8a1 1 0 0 0 0 2h8a1 1 0 0 0 0-2z"/><path d="m13.293 38.293-3.293 3.293-1.293-1.293a1 1 0 1 0 -1.414 1.414l2 2a1 1 0 0 0 1.414 0l4-4a1 1 0 0 0 -1.414-1.414z"/><path d="m28 40h-8a1 1 0 0 0 0 2h8a1 1 0 0 0 0-2z"/></g></svg>