<?xml version="1.0" encoding="utf-8"?>
<!-- Generator: Adobe Illustrator 17.1.0, SVG Export Plug-In . SVG Version: 6.00 Build 0)  -->
<!DOCTYPE svg PUBLIC "-//W3C//DTD SVG 1.1//EN" "http://www.w3.org/Graphics/SVG/1.1/DTD/svg11.dtd">
<svg version="1.1" id="Layer_1" xmlns="http://www.w3.org/2000/svg" xmlns:xlink="http://www.w3.org/1999/xlink" x="0px" y="0px"
	 viewBox="0 0 512 512" enable-background="new 0 0 512 512" xml:space="preserve">
<g>
	<g>
		<path fill="#FCC24C" d="M484,504H28c-11,0-20-9-20-20v-79.5c0-11,9-20,20-20h456c11,0,20,9,20,20V484C504,495,495,504,484,504z"/>
	</g>
	<g>
		<path fill="#F4EFED" d="M222,252.4v-33.7h68.3v33.7H352c23.9,0,43.2,19.6,43.2,43.5v88.6H116.8v-89c0-23.9,19.5-43.2,43.4-43.2
			L222,252.4z"/>
	</g>
	<g>
		<path fill="#FF9F70" d="M222,252.4v-33.7h68.3v33.7L256,304.6L222,252.4z"/>
	</g>
	<g>
		<g>
			<path fill="#FFFFFF" d="M160.3,252.4l20.3,0c-23.9,0-43.4,19.3-43.4,43.2v89h-20.3v-89C116.9,271.7,136.4,252.3,160.3,252.4
				L160.3,252.4z"/>
		</g>
	</g>
	<g>
		<g>
			<path fill="#D6D1CF" d="M351.7,252.4l-20.3,0c23.9,0,43.4,19.3,43.4,43.2v89h20.3v-89C395.1,271.7,375.6,252.3,351.7,252.4
				L351.7,252.4z"/>
		</g>
	</g>
	<g>
		<path d="M170.6,387c-2.2,0-4-1.8-4-4v-39.5c0-2.2,1.8-4,4-4s4,1.8,4,4V383C174.6,385.2,172.8,387,170.6,387z"/>
	</g>
	<g>
		<path d="M341.4,387c-2.2,0-4-1.8-4-4v-39.5c0-2.2,1.8-4,4-4s4,1.8,4,4V383C345.4,385.2,343.6,387,341.4,387z"/>
	</g>
	<g>
		<path d="M395.2,388.5H116.8c-2.2,0-4-1.8-4-4v-89c0-26,21.3-47.2,47.4-47.2h0.1l57.7,0v-29.7c0-2.2,1.8-4,4-4h68.3
			c2.2,0,4,1.8,4,4v29.7H352c26.1,0,47.2,21.4,47.2,47.5v88.6C399.2,386.7,397.4,388.5,395.2,388.5L395.2,388.5z M120.8,380.5h270.3
			v-84.6c0-21.8-17.6-39.5-39.2-39.5h-61.7c-2.2,0-4-1.8-4-4v-29.7H226v29.7c0,1.1-0.4,2.1-1.2,2.8s-1.8,1.2-2.8,1.2c0,0,0,0,0,0
			l-61.8,0c0,0,0,0,0,0c-21.7,0-39.3,17.6-39.4,39.2L120.8,380.5z"/>
	</g>
	<g>
		<path fill="#050007" d="M256,308.6C256,308.6,256,308.6,256,308.6c-1.4,0-2.6-0.7-3.4-1.8l-34-52.3c-0.4-0.6-0.6-1.4-0.6-2.2
			v-33.7c0-2.2,1.8-4,4-4h68.3c2.2,0,4,1.8,4,4v33.7c0,0.8-0.2,1.5-0.7,2.2l-34.3,52.3C258.6,308,257.3,308.6,256,308.6z M226,251.2
			l30,46.1l30.3-46.1v-28.5H226L226,251.2L226,251.2z"/>
	</g>
	<g>
		<path fill="#FCC24C" d="M319,62.8v-2.6c0-10.9-6.6-20.3-16.1-24.3c-10.8-4.6-21.3-9.8-30.9-16.6L256,8v0l0,0l0,0v0l-16,11.2
			c-9.6,6.7-20.1,12-30.9,16.6c-9.5,4-16.1,13.4-16.1,24.3v2.6c-15.4,0-27.5,13.1-26.3,28.5l4.5,57.3H256h0h84.8l4.5-57.3
			C346.5,75.9,334.4,62.8,319,62.8L319,62.8z"/>
	</g>
	<g>
		<g>
			<path fill="#DEA42E" d="M319,62.8v-2.6c0-10.9-6.6-20.3-16.1-24.3c-10.8-4.6-21.3-9.8-30.9-16.6L256,8
				c6.2,12.8,21.5,23.2,32.3,27.8c9.5,4,16.1,13.4,16.1,24.3c0,1.4,1.1,2.6,2.5,2.7c14.2,1.3,25,13.8,23.8,28.3l-4.5,57.3h14.6
				l4.5-57.3C346.5,75.9,334.4,62.8,319,62.8z"/>
		</g>
	</g>
	<g>
		<g>
			<path fill="#FCE06A" d="M193,62.8v-2.6c0-10.9,6.6-20.3,16.1-24.3c10.8-4.6,21.3-9.8,30.9-16.6L256,8
				c-6.2,12.8-21.5,23.2-32.3,27.8c-9.5,4-16.1,13.4-16.1,24.3c0,1.4-1.1,2.6-2.5,2.7c-14.2,1.3-25,13.8-23.8,28.3l4.5,57.3h-14.6
				l-4.5-57.3C165.5,75.9,177.6,62.8,193,62.8z"/>
		</g>
	</g>
	<g>
		<path d="M340.8,152.5H171.2c-2.1,0-3.8-1.6-4-3.7l-4.5-57.3c-0.7-8.4,2.3-16.8,8-23C175.5,63.3,182,60,189,59
			c0.4-11.8,7.6-22.3,18.5-26.9c12.3-5.2,21.8-10.3,30.1-16.2l15.7-11.1c0.2-0.2,0.4-0.3,0.7-0.5c0.7-0.4,1.5-0.5,2.2-0.4
			c0.5,0,1,0.2,1.5,0.4c0.3,0.1,0.5,0.3,0.7,0.5L274.3,16c8.3,5.8,17.9,11,30.1,16.2c10.9,4.6,18.1,15.1,18.5,26.9
			c7,0.9,13.5,4.3,18.3,9.5c5.7,6.2,8.6,14.6,8,23l-4.5,57.3C344.6,150.9,342.9,152.5,340.8,152.5z M174.9,144.5h162.2l4.2-53.6
			c0.5-6.3-1.6-12.3-5.9-17c-4.3-4.6-10.1-7.2-16.4-7.2c-2.2,0-4-1.8-4-4v-2.6c0-9-5.4-17.1-13.7-20.6c-12.8-5.4-22.8-10.8-31.6-17
			L256,12.9l-13.7,9.6c-8.8,6.2-18.8,11.6-31.6,17C202.4,43,197,51.1,197,60.2v2.6c0,2.2-1.8,4-4,4c-6.3,0-12.2,2.6-16.4,7.2
			c-4.3,4.6-6.4,10.7-5.9,17L174.9,144.5z"/>
	</g>
	<g>
		<path fill="#FFBD8E" d="M188.4,129.8h-4.8c-12.5,0-22.6,10.1-22.6,22.6c0,12.5,10.1,22.6,22.6,22.6h4.8V129.8z"/>
	</g>
	<g>
		<path fill="#E18152" d="M328.6,129.8h-4.8v45.2h4.8c12.5,0,22.6-10.1,22.6-22.6C351.2,140,341.1,129.8,328.6,129.8z"/>
	</g>
	<g>
		<path fill="#FF9F70" d="M256.1,244.8c-37.4,0-67.7-30.7-67.7-68.6v-47.5c0-37.9,30.3-68.6,67.7-68.6s67.7,30.7,67.7,68.6v47.5
			C323.8,214.1,293.5,244.8,256.1,244.8z"/>
	</g>
	<g>
		<path fill="#E18152" d="M256.1,60.2c-2.6,0-5.2,0.2-7.7,0.5c33.8,3.9,60,32.9,60,68.1v47.5c0,35.2-26.2,64.3-60,68.1
			c2.5,0.3,5.1,0.5,7.7,0.5c37.4,0,67.7-30.7,67.7-68.6v-47.5C323.8,90.9,293.5,60.2,256.1,60.2L256.1,60.2z"/>
	</g>
	<g>
		<path fill="#FFBD8E" d="M256.1,60.2c2.6,0,5.2,0.2,7.7,0.5c-33.8,3.9-60,32.9-60,68.1v47.5c0,35.2,26.2,64.3,60,68.1
			c-2.5,0.3-5.1,0.5-7.7,0.5c-37.4,0-67.7-30.7-67.7-68.6v-47.5C188.4,90.9,218.7,60.2,256.1,60.2L256.1,60.2z"/>
	</g>
	<g>
		<path d="M256.1,248.8c-39.5,0-71.7-32.6-71.7-72.6v-47.5c0-40,32.2-72.6,71.7-72.6s71.7,32.6,71.7,72.6v47.5
			C327.8,216.3,295.6,248.8,256.1,248.8z M256.1,64.2c-35.1,0-63.7,29-63.7,64.6v47.5c0,35.6,28.6,64.6,63.7,64.6s63.7-29,63.7-64.6
			v-47.5C319.8,93.2,291.2,64.2,256.1,64.2z"/>
	</g>
	<g>
		<path d="M188.4,179.1h-4.8c-14.7,0-26.6-11.9-26.6-26.6c0-14.7,11.9-26.6,26.6-26.6h4.8c2.2,0,4,1.8,4,4v45.2
			C192.4,177.3,190.6,179.1,188.4,179.1L188.4,179.1z M183.5,133.8c-10.3,0-18.6,8.4-18.6,18.6s8.4,18.6,18.6,18.6h0.8v-37.3H183.5z
			"/>
	</g>
	<g>
		<path d="M328.6,179.1h-4.8c-2.2,0-4-1.8-4-4v-45.2c0-2.2,1.8-4,4-4h4.8c14.7,0,26.6,11.9,26.6,26.6
			C355.2,167.1,343.3,179.1,328.6,179.1z M327.8,171.1h0.8c10.3,0,18.6-8.4,18.6-18.6s-8.4-18.6-18.6-18.6h-0.8V171.1z"/>
	</g>
	<g>
		<path d="M137.1,337.3c-2.2,0-4-1.8-4-4v-24c0-2.2,1.8-4,4-4s4,1.8,4,4v24C141.1,335.5,139.3,337.3,137.1,337.3z"/>
	</g>
	<g>
		<path d="M205.3,387c-0.7,0-1.5-0.2-2.2-0.6c-1.9-1.2-2.4-3.7-1.2-5.5l50.7-78.4c1.2-1.9,3.7-2.4,5.5-1.2c1.9,1.2,2.4,3.7,1.2,5.5
			l-50.7,78.4C207.9,386.4,206.6,387,205.3,387L205.3,387z"/>
	</g>
	<g>
		<path fill="#DEA42E" d="M484,384.5h-16c11,0,20,9,20,20V484c0,11-9,20-20,20h16c11,0,20-9,20-20v-79.5
			C504,393.5,495,384.5,484,384.5z"/>
	</g>
	<g>
		<path fill="#FCE06A" d="M28,504h16c-11,0-20-9-20-20v-79.5c0-11,9-20,20-20H28c-11,0-20,9-20,20V484C8,495,17,504,28,504z"/>
	</g>
	<g>
		<path fill="#050007" d="M484,508H28c-13.2,0-24-10.8-24-24v-79.5c0-13.2,10.8-24,24-24h456c13.2,0,24,10.8,24,24V484
			C508,497.2,497.2,508,484,508z M28,388.5c-8.8,0-16,7.2-16,16V484c0,8.8,7.2,16,16,16h456c8.8,0,16-7.2,16-16v-79.5
			c0-8.8-7.2-16-16-16H28z"/>
	</g>
	<g>
		<path d="M45.1,464.1v-43c0-2.2,1.7-4,4-4h0.1h0.1h23.6c2.1,0,4,1.8,4,4c0,2.3-1.9,4.1-4,4.1H53.1v13.3h17c2.2,0,4,1.9,4,4
			c0,2.3-1.8,4.1-4,4.1h-17v17.5c0,2.2-1.8,4-4.1,4C46.8,468.1,45.1,466.3,45.1,464.1L45.1,464.1z"/>
	</g>
	<g>
		<path d="M126.5,462c0.7,2.1-0.4,4.4-2.6,5.1c-0.3,0.1-0.9,0.2-1.6,0.2c0,0,0,0-0.1,0c-0.7,0-1.8-0.1-2.8-0.8
			c-0.9-0.6-1.7-1.5-2.3-2.5c-1-2.1-1.5-4.7-1.5-8.7c-0.1-1.4-0.4-2.3-0.9-3.1c-0.4-0.8-1.3-1.5-2.2-2.1c-1.5-1-3.4-1.6-4.1-1.8
			h-8.6v15.8c0,2.2-1.8,4-4.1,4s-4-1.8-4-4v-43c0-2.3,1.7-4,4-4h0.1h13c8.7,0,15.6,7,15.6,15.7c0,4.8-2.2,9-5.7,11.9
			c0.9,0.7,1.8,1.6,2.6,2.7c1.5,2.1,2.4,4.8,2.4,7.9c-0.1,2.2,0.1,3.6,0.3,4.3C125.1,459.9,126.1,460.8,126.5,462L126.5,462z
			 M116.3,432.8c0-4.2-3.4-7.6-7.5-7.6h-9v15h9C112.9,440.2,116.3,436.8,116.3,432.8z"/>
	</g>
	<g>
		<path d="M141.9,464.1v-43c0-2.3,1.7-4,4-4h0.1h0.1h23.6c2.1,0,4,1.8,4,4c0,2.3-1.9,4.1-4,4.1H150v13.3h17c2.2,0,4,1.9,4,4
			c0,2.3-1.8,4.1-4,4.1h-17V460h19.7c2.1,0,4,1.8,4,4.1c0,2.2-1.9,4-4,4h-23.6c-0.1,0-0.1-0.1-0.1-0.1l-0.1,0.1
			C143.7,468.1,141.9,466.3,141.9,464.1L141.9,464.1z"/>
	</g>
	<g>
		<path d="M188.8,464.1v-43c0-2.3,1.7-4,4-4h0.1h0.1h23.6c2.1,0,4,1.8,4,4c0,2.3-1.9,4.1-4,4.1h-19.7v13.3h17c2.2,0,4,1.9,4,4
			c0,2.3-1.8,4.1-4,4.1h-17V460h19.7c2.1,0,4,1.8,4,4.1c0,2.2-1.9,4-4,4H193c-0.1,0-0.1-0.1-0.1-0.1l-0.1,0.1
			C190.5,468.1,188.8,466.3,188.8,464.1L188.8,464.1z"/>
	</g>
	<g>
		<path d="M292.3,425.2h-11.6v38.9c0,2.3-1.7,4-4,4c-2.2,0-4-1.7-4-4v-38.9h-11.5c-2.3,0-4-1.9-4-4.1c0-2.3,1.7-4,4-4h31.1
			c2.2,0,4,1.8,4,4C296.3,423.3,294.4,425.2,292.3,425.2z"/>
	</g>
	<g>
		<path d="M345.7,462c0.7,2.1-0.4,4.4-2.5,5.1c-0.3,0.1-0.9,0.2-1.6,0.2c0,0,0,0-0.1,0c-0.7,0-1.8-0.1-2.8-0.8
			c-0.9-0.6-1.7-1.5-2.3-2.5c-1-2.1-1.5-4.7-1.5-8.7c-0.1-1.4-0.4-2.3-0.9-3.1c-0.4-0.8-1.3-1.5-2.2-2.1c-1.5-1-3.4-1.6-4.1-1.8H319
			v15.8c0,2.2-1.8,4-4.1,4s-4-1.8-4-4v-43c0-2.3,1.7-4,4-4h0.1h13c8.7,0,15.6,7,15.6,15.7c0,4.8-2.2,9-5.7,11.9
			c1,0.7,1.8,1.6,2.5,2.7c1.5,2.1,2.4,4.8,2.4,7.9c-0.1,2.2,0.1,3.6,0.3,4.3C344.3,459.9,345.2,460.8,345.7,462L345.7,462z
			 M335.5,432.8c0-4.2-3.4-7.6-7.5-7.6h-9v15h9C332.1,440.2,335.5,436.8,335.5,432.8z"/>
	</g>
	<g>
		<path d="M361.6,421.1c0-2.3,1.7-4,4-4c2.2,0,4.1,1.8,4.1,4v43c0,2.3-1.9,4-4.1,4c-2.3,0-4-1.7-4-4V421.1z"/>
	</g>
	<g>
		<path d="M413,456.1h-17.7l-3.6,9.5c-0.7,1.6-2.2,2.5-3.8,2.5c-0.5,0-0.9-0.1-1.4-0.2c-2.1-0.8-3.1-3.1-2.4-5.2l16.1-42.9
			c0.7-1.6,2.3-2.6,3.9-2.5c1.7-0.1,3.2,0.9,3.9,2.5l16.1,42.9c0.7,2.1-0.3,4.4-2.4,5.2c-0.4,0.1-0.9,0.2-1.4,0.2
			c-1.6,0-3.1-0.9-3.7-2.5L413,456.1z M410,448l-5.9-15.7l-5.9,15.7H410z"/>
	</g>
	<g>
		<path d="M437.6,464.1v-43c0-2.2,1.7-4,4-4c2.3,0,4.1,1.8,4.1,4V460h19.7c2.1,0,4,1.8,4,4.1c0,2.2-1.9,4-4,4h-23.6
			c-0.1,0-0.1,0-0.1,0c-0.1,0-0.1,0-0.1,0C439.4,468.1,437.6,466.3,437.6,464.1z"/>
	</g>
</g>
</svg>
