<svg height="512pt" viewBox="0 0 512.0054 512" width="512pt" xmlns="http://www.w3.org/2000/svg"><path d="m8 8.003906h248v496h-248zm0 0" fill="#91e8ed"/><path d="m451.335938 344.449219c0-4.132813-.207032-8.222657-.59375-12.253907l28.050781-25.601562c-1.902344-7.785156-4.390625-15.414062-7.441407-22.824219l-37.75-4.238281c-4.160156-7.042969-8.984374-13.671875-14.402343-19.800781l7.632812-37.199219c-6.121093-5.203125-12.621093-9.941406-19.449219-14.175781l-33.039062 18.710937c-7.503906-3.273437-15.308594-5.816406-23.304688-7.582031l-15.695312-34.585937h-24l-15.695312 34.585937c-7.992188 1.765625-15.796876 4.304687-23.296876 7.582031l-29.230468-16.542968-75.242188 96.039062 28 25.601562c-.382812 4.03125-.578125 8.117188-.582031 12.253907-.007813 4.140625.1875 8.226562.582031 12.257812l-28 25.597657c1.898438 7.785156 4.382813 15.410156 7.433594 22.816406l37.75 4.207031c4.160156 7.046875 8.980469 13.675781 14.402344 19.800781l-7.625 37.199219c6.121094 5.207031 12.621094 9.945313 19.449218 14.179687l33.039063-18.707031c7.503906 3.273438 15.304687 5.8125 23.296875 7.585938l15.703125 34.648437h24l15.695313-34.578125c7.996093-1.769531 15.796874-4.3125 23.304687-7.582031l30.894531 17.488281 72.191406-98.234375-26.679687-24.390625c.394531-4.03125.601563-8.121093.601563-12.257812zm-128 64c-35.347657 0-64-28.652344-64-64 0-35.34375 28.652343-64 64-64 35.347656 0 64 28.65625 64 64 0 35.347656-28.652344 64-64 64zm0 0" fill="#00c3ff"/><g fill="#ffea00"><path d="m8 56.003906h80v32h-80zm0 0"/><path d="m8 136.003906h80v32h-80zm0 0"/><path d="m391.894531 421.027344-168-116.144532 29.929688-37.664062 168 116.144531zm0 0"/><path d="m443 492.449219c11.949219.015625 23.636719-3.496094 33.601562-10.09375l-41.746093-30.570313 28.839843-39.367187 39.503907 28.921875c.53125-3.269532.796875-6.578125.800781-9.890625 0-33.6875-27.3125-61-61-61s-61 27.3125-61 61c0 33.691406 27.3125 61 61 61zm0 0"/><path d="m203 195.449219c-11.949219-.011719-23.636719 3.5-33.601562 10.097656l41.746093 30.566406-28.839843 39.378907-39.496094-28.929688c-.53125 3.269531-.796875 6.574219-.800782 9.886719 0 33.691406 27.3125 61 61 61 33.691407 0 61-27.308594 61-61 0-33.6875-27.308593-61-61-61zm0 0"/></g><path d="m48 320.003906h16v144h-16zm0 0" fill="#fff"/><path d="m80 320.003906h16v144h-16zm0 0" fill="#fff"/><path d="m112 320.003906h16v144h-16zm0 0" fill="#fff"/><path d="m144 432.003906h16v32h-16zm0 0" fill="#fff"/><path d="m176 432.003906h16v32h-16zm0 0" fill="#fff"/><path d="m482.824219 375.203125-23.800781-21.746094c.199218-3.046875.304687-6.054687.304687-9 0-2.941406-.105469-5.949219-.304687-8.992187l28.65625-26.191406-10.734376-32.949219-38.546874-4.320313c-3.199219-5.0625-6.726563-9.910156-10.558594-14.511718l7.785156-38-28.050781-20.441407-33.75 19.113281c-5.574219-2.246093-11.289063-4.117187-17.113281-5.601562l-16.199219-35.703125h-34.34375l-16.199219 35.703125c-5.824219 1.484375-11.539062 3.355469-17.113281 5.601562l-8.855469-5.007812v-213.15234375h-264v511.99999975h264v-36.25l8.863281-5.023437c5.570313 2.246093 11.285157 4.117187 17.105469 5.601562l16.199219 35.671875h34.328125l16.199218-35.707031c5.824219-1.484375 11.539063-3.355469 17.113282-5.597656l27.472656 15.558593c23.269531 17.832032 55.292969 18.933594 79.734375 2.746094l9.601563-6.335937-44.5625-32.632813 19.386718-26.464844 43.527344 31.886719 2.121094-12.839843c4.292968-26.039063-6.683594-52.238282-28.257813-67.4375zm-210.960938-139.199219 3.664063-1.601562c7.03125-3.0625 14.34375-5.441406 21.832031-7.105469l3.90625-.863281 15.199219-33.527344h13.6875l15.199218 33.527344 3.90625.863281c7.488282 1.664063 14.796876 4.042969 21.832032 7.105469l3.664062 1.601562 32.316406-18.296875c3.738282 2.488281 7.386719 5.144531 10.898438 7.945313l-7.464844 36.398437 2.648438 2.992188c5.085937 5.742187 9.613281 11.960937 13.511718 18.566406l2.03125 3.433594 36.9375 4.121093c1.597657 4.183594 2.960938 8.445313 4.152344 12.75l-27.386718 25.066407.386718 4c.367188 3.902343.550782 7.773437.550782 11.503906 0 3.726563-.183594 7.597656-.550782 11.503906l-.386718 4 2.890624 2.644531c-.800781 0-1.511718-.117187-2.289062-.117187-9.820312 0-19.527344 2.09375-28.472656 6.144531l-20-13.847656c4.085937-27.058594-7.59375-54.078125-30.101563-69.636719-22.503906-15.5625-51.90625-16.949219-75.777343-3.574219l-17.878907-12.359374c2.289063-11.800782 1.375-24-2.640625-35.328126zm107.464844 108.253906-75.464844-52.167968c17.132813-6.519532 36.375-4.1875 51.453125 6.234375 15.078125 10.425781 24.058594 27.605469 24.011719 45.933593zm-363.328125-328.253906h232v48h-152v-16h-80zm0 48h64v16h-64zm0 32h80v-16h152v64h-152v-16h-80zm0 48h64v16h-64zm232 352h-232v-320h80v-16h152v44.085938l-.488281-.269532c-23.34375-19.839843-56.992188-21.855468-82.535157-4.945312l-9.601562 6.335938 44.5625 32.632812-19.386719 26.464844-43.511719-31.890625-2.117187 12.839843c-4.265625 25.796876 6.476563 51.777344 27.710937 67.03125l-.152343.175782 25.152343 22.992187c-.191406 3.019531-.296874 6.027344-.296874 8.992188 0 2.96875.105468 5.984375.296874 8.992187l-28.65625 26.191406 1.128907 4.601563c1.996093 8.183594 4.605469 16.207031 7.804687 24l1.808594 4.375 38.5625 4.296875c3.199219 5.0625 6.726562 9.910156 10.558594 14.511719l-7.785156 38 3.609374 3.074219c6.429688 5.453124 13.253907 10.425781 20.414063 14.871093l4 2.496094 8.921875-5.058594zm126.800781-43.097656-3.664062 1.601562c-7.03125 3.066407-14.34375 5.445313-21.832031 7.101563l-3.90625.875-15.222657 33.519531h-13.6875l-15.199219-33.519531-3.929687-.882813c-7.488281-1.65625-14.796875-4.035156-21.824219-7.101562l-3.664062-1.601562-32.320313 18.304687c-3.730469-2.480469-7.367187-5.128906-10.902343-7.945313l7.464843-36.398437-2.648437-2.992187c-5.085938-5.742188-9.609375-11.957032-13.511719-18.558594l-2.03125-3.441406-36.9375-4.121094c-1.601563-4.175782-2.953125-8.4375-4.152344-12.75l27.433594-25.074219-.386719-4c-.359375-3.847656-.542968-7.71875-.542968-11.503906 0-3.785157.183593-7.648438.542968-11.503907l.386719-4-4-3.664062c.910156 0 1.8125.136719 2.742187.136719 9.644532-.003907 19.183594-2.027344 28-5.9375l21.183594 14.648437c-.507812 3.40625-.777344 6.84375-.800781 10.289063-.109375 25.492187 13.324219 49.125 35.285156 62.070312 21.964844 12.945313 49.148438 13.253907 71.394531.808594l17.136719 11.839844c-.539062 3.011719-.875 6.058593-1 9.113281-.085937 1.121094-.152343 2.199219-.152343 3.199219 0 2.226562.128906 4.425781.335937 6.601562.058594.648438.167969 1.269531.25 1.902344.179687 1.570313.414063 3.121094.703125 4.65625.128906.640625.28125 1.273437.425781 1.914063.339844 1.5625.734375 3.101562 1.183594 4.613281.160156.511719.3125 1.023437.480469 1.527343.214844.691407.390625 1.386719.628906 2.058594zm-107.457031-108.253906 75.457031 52.148437c-17.128906 6.523438-36.371093 4.191407-51.449219-6.230469-15.078124-10.421874-24.054687-27.597656-24.007812-45.925781zm194.632812 56.582031-38.289062 52.273437 37.746094 27.648438c-17.519532 6.488281-37.160156 3.261719-51.679688-8.488281-1.066406-.855469-2.058594-1.769531-3.042968-2.6875-.613282-.585938-1.230469-1.167969-1.824219-1.785157-1-1.039062-1.976563-2.097656-2.878907-3.199218-.640624-.800782-1.222656-1.601563-1.816406-2.402344-.472656-.648438-.960937-1.296875-1.40625-1.96875-.578125-.871094-1.105468-1.773438-1.601562-2.6875-.398438-.679688-.800782-1.359375-1.152344-2.0625-.472656-.90625-.910156-1.832031-1.335938-2.769531-.34375-.796875-.664062-1.542969-.976562-2.335938-.3125-.789062-.695312-1.800781-1-2.726562-.304688-.929688-.550781-1.847657-.796875-2.777344-.25-.925781-.464844-1.671875-.648437-2.519531-.25-1.152344-.425782-2.328125-.601563-3.496094-.097656-.679688-.230469-1.351562-.3125-2.039062-.207031-1.90625-.3125-3.820313-.320313-5.734376 0-1.144531.160157-2.3125.242188-3.472656.269531-2.546875.726562-5.488281 1.167969-8 .175781-.753906.253906-1.503906.453125-2.257812l1.464844-5.4375-161.152344-111.386719-4.304688 2.296875c-15.554687 8.285156-34.214844 8.289062-49.777344.015625-15.5625-8.277344-25.988281-23.75-27.820312-41.28125l33.6875 24.714844 38.3125-52.265625-37.746094-27.640625c18.65625-6.988281 39.660156-2.902344 54.332032 10.578125 14.667968 13.476562 20.519531 34.058594 15.132812 53.238281l-1.519531 5.472656 160.847656 111.152344 4.328125-2.402344c15.566406-8.449219 34.320312-8.566406 49.996094-.320312 15.671875 8.25 26.191406 23.78125 28.035156 41.394531zm0 0"/></svg>