<svg enable-background="new 0 0 58 58" height="512" viewBox="0 0 58 58" width="512" xmlns="http://www.w3.org/2000/svg"><path d="m37 16-8 4v8l8 4 8-4v-8z" fill="#96291a"/><path d="m21 16-8 4v8l8 4 8-4v-8z" fill="#c49318"/><path d="m29 28-8 4v8l8 4 8-4v-8z" fill="#c1691a"/><g fill="#61b872"><path d="m53.682 26.032c-.482 0-.908-.351-.986-.843-.304-1.9-.836-3.76-1.583-5.526-.215-.509.022-1.096.531-1.311.51-.216 1.096.022 1.311.531.81 1.915 1.388 3.931 1.716 5.991.087.545-.284 1.058-.83 1.145-.053.009-.107.013-.159.013z"/><path d="m48.795 14.733c-.299 0-.595-.134-.792-.389-1.258-1.629-2.723-3.094-4.355-4.354-.437-.337-.518-.965-.18-1.402s.966-.517 1.403-.18c1.767 1.364 3.353 2.95 4.715 4.714.337.438.257 1.065-.18 1.402-.182.141-.397.209-.611.209z"/><path d="m38.726 6.967c-.13 0-.262-.025-.389-.079-1.766-.747-3.626-1.28-5.527-1.584-.545-.087-.917-.6-.83-1.146.087-.545.601-.918 1.145-.829 2.061.329 4.076.907 5.991 1.717.509.215.747.802.531 1.311-.161.381-.531.61-.921.61z"/><path d="m32.967 54.684c-.483 0-.908-.351-.986-.842-.087-.546.284-1.059.83-1.146 1.901-.304 3.761-.837 5.527-1.584.51-.214 1.096.021 1.311.531.215.509-.022 1.096-.531 1.311-1.915.81-3.93 1.388-5.991 1.717-.055.009-.108.013-.16.013z"/><path d="m44.267 49.795c-.299 0-.595-.134-.792-.389-.337-.438-.257-1.065.18-1.402 1.63-1.259 3.095-2.725 4.354-4.356.336-.438.964-.517 1.402-.181.438.338.518.966.181 1.403-1.363 1.767-2.949 3.354-4.714 4.716-.182.141-.397.209-.611.209z"/><path d="m52.033 39.727c-.13 0-.262-.025-.389-.079-.509-.215-.747-.802-.531-1.311.747-1.767 1.28-3.626 1.583-5.526.086-.546.601-.919 1.145-.83.545.087.917.6.83 1.145-.329 2.061-.906 4.076-1.716 5.991-.162.381-.533.61-.922.61z"/><path d="m5.967 39.727c-.39 0-.76-.229-.921-.61-.81-1.915-1.388-3.931-1.716-5.991-.087-.545.284-1.058.83-1.145.54-.089 1.059.284 1.145.83.304 1.9.836 3.76 1.583 5.526.215.509-.022 1.096-.531 1.311-.128.053-.26.079-.39.079z"/><path d="m13.74 49.801c-.214 0-.429-.068-.611-.209-1.767-1.364-3.353-2.95-4.715-4.714-.337-.438-.257-1.065.18-1.402.437-.338 1.064-.258 1.403.18 1.258 1.629 2.723 3.094 4.355 4.354.437.337.518.965.18 1.402-.197.255-.493.389-.792.389z"/><path d="m25.033 54.684c-.052 0-.105-.004-.159-.013-2.061-.329-4.076-.907-5.991-1.717-.509-.215-.747-.802-.531-1.311.215-.51.801-.745 1.311-.531 1.766.747 3.626 1.28 5.527 1.584.545.087.917.6.83 1.146-.079.491-.504.842-.987.842z"/><path d="m19.274 6.967c-.39 0-.76-.229-.921-.61-.215-.509.022-1.096.531-1.311 1.915-.81 3.93-1.388 5.991-1.717.545-.089 1.058.285 1.145.829.087.546-.284 1.059-.83 1.146-1.901.304-3.761.837-5.527 1.584-.127.053-.259.079-.389.079z"/><path d="m9.199 14.741c-.213 0-.428-.068-.61-.208-.438-.338-.518-.966-.181-1.403 1.363-1.767 2.949-3.354 4.714-4.716.437-.337 1.064-.258 1.403.18.337.438.257 1.065-.18 1.402-1.63 1.259-3.095 2.725-4.354 4.356-.197.255-.492.389-.792.389z"/><path d="m4.318 26.032c-.053 0-.105-.004-.159-.013-.545-.087-.917-.6-.83-1.145.329-2.061.906-4.076 1.716-5.991.215-.509.801-.747 1.311-.531.509.215.747.802.531 1.311-.747 1.767-1.28 3.626-1.583 5.526-.078.493-.503.843-.986.843z"/></g><circle cx="4" cy="29" fill="#dd352e" r="4"/><circle cx="54" cy="29" fill="#dd352e" r="4"/><circle cx="29" cy="54" fill="#dd352e" r="4"/><circle cx="29" cy="4" fill="#dd352e" r="4"/><path d="m21 32-8-4v-8l8 4z" fill="#d8a516"/><path d="m21 32 8-4v-8l-8 4z" fill="#ebba16"/><path d="m21 24-8-4 8-4 8 4z" fill="#c49318"/><path d="m37 32-8-4v-8l8 4z" fill="#c5411e"/><path d="m37 32 8-4v-8l-8 4z" fill="#af331b"/><path d="m37 24-8-4 8-4 8 4z" fill="#96291a"/><path d="m29 44-8-4v-8l8 4z" fill="#ed8a19"/><path d="m29 44 8-4v-8l-8 4z" fill="#d3761a"/><path d="m29 36-8-4 8-4 8 4z" fill="#c1691a"/></svg>