<svg height="512" viewBox="0 0 60 60" width="512" xmlns="http://www.w3.org/2000/svg"><g id="Page-1" fill="none" fill-rule="evenodd"><g id="004---Invoicing" fill-rule="nonzero"><g id="Icons" transform="translate(1 1)"><path id="Shape" d="m16 19h42v36c0 1.6568542-1.3431458 3-3 3h-52c-1.65685425 0-3-1.3431458-3-3v-36z" fill="#60a917"/><path id="Shape" d="m55 19v36c0 1.6568542-1.3431458 3-3 3h3c1.6568542 0 3-1.3431458 3-3v-36z" fill="#549414"/><path id="Shape" d="m16 19h42v-16c0-1.65685425-1.3431458-3-3-3h-52c-1.65685425 0-3 1.34314575-3 3v16z" fill="#ffeb3a"/><path id="Shape" d="m55 0h-3c1.6568542 0 3 1.34314575 3 3v16h3v-16c0-1.65685425-1.3431458-3-3-3z" fill="#fdd834"/><path id="Shape" d="m43 33v6h-38v-5c0-.5522847.44771525-1 1-1z" fill="#9e9e9e"/><path id="Shape" d="m43 39v14h-37c-.55228475 0-1-.4477153-1-1v-13z" fill="#f5f5f5"/><path id="Shape" d="m53 34v5h-10v-6h9c.5522847 0 1 .4477153 1 1z" fill="#f5f5f5"/><path id="Shape" d="m52 33h-3c.5522847 0 1 .4477153 1 1v5h3v-5c0-.5522847-.4477153-1-1-1z" fill="#cfd8dc"/><path id="Shape" d="m53 39v13c0 .5522847-.4477153 1-1 1h-9v-14z" fill="#9e9e9e"/><path id="Shape" d="m50 39v13c0 .5522847-.4477153 1-1 1h3c.5522847 0 1-.4477153 1-1v-13z" fill="#707070"/></g><g id="Layer_2" fill="#000"><path id="Shape" d="m4 60h52c2.209139 0 4-1.790861 4-4v-52c0-2.209139-1.790861-4-4-4h-52c-2.209139 0-4 1.790861-4 4v52c0 2.209139 1.790861 4 4 4zm-2-56c0-1.1045695.8954305-2 2-2h52c1.1045695 0 2 .8954305 2 2v15h-41c-.5522847 0-1 .4477153-1 1s.4477153 1 1 1h41v35c0 1.1045695-.8954305 2-2 2h-52c-1.1045695 0-2-.8954305-2-2v-35h9c.5522847 0 1-.4477153 1-1s-.4477153-1-1-1h-9z"/><path id="Shape" d="m10 14h-1v-6h1c.5522847 0 1-.44771525 1-1s-.4477153-1-1-1h-4c-.55228475 0-1 .44771525-1 1s.44771525 1 1 1h1v6h-1c-.55228475 0-1 .4477153-1 1s.44771525 1 1 1h4c.5522847 0 1-.4477153 1-1s-.4477153-1-1-1z"/><path id="Shape" d="m49 16h4c.5522847 0 1-.4477153 1-1s-.4477153-1-1-1h-3v-2h3c.5522847 0 1-.4477153 1-1s-.4477153-1-1-1h-3v-2h3c.5522847 0 1-.44771525 1-1s-.4477153-1-1-1h-4c-.5522847 0-1 .44771525-1 1v8c0 .5522847.4477153 1 1 1z"/><path id="Shape" d="m34 14c-.5522847 0-1 .4477153-1 1s.4477153 1 1 1h4c.5522847 0 1-.4477153 1-1s-.4477153-1-1-1h-1v-6h1c.5522847 0 1-.44771525 1-1s-.4477153-1-1-1h-4c-.5522847 0-1 .44771525-1 1s.4477153 1 1 1h1v6z"/><path id="Shape" d="m13 16c.5522847 0 1-.4477153 1-1v-3.764l2.105 4.211c.2070599.415452.6727907.6337945 1.1245837.5272238.4517929-.1065707.7708502-.510032.7704163-.9742238v-8c0-.55228475-.4477153-1-1-1s-1 .44771525-1 1v3.764l-2.1-4.211c-.2040519-.42147024-.6732513-.64490274-1.129074-.53766446-.4558226.10723828-.7761896.51642664-.770926.98466446v8c0 .5522847.4477153 1 1 1z"/><path id="Shape" d="m21.03 15.243c.1114998.4448894.5113511.7568951.97.7568951s.8585002-.3120057.97-.7568951l2-8c.0897157-.3475751-.0137487-.71657151-.2710941-.96683275s-.6290855-.34338787-.9740215-.24400745c-.3449361.09938041-.6101421.37601918-.6948844.7248402l-1.03 4.12-1.03-4.12c-.1373346-.53205934-.6782442-.85362876-1.2112708-.72009737-.5330265.13353139-.8584506.67213082-.7287292 1.20609737z"/><path id="Shape" d="m29 16c1.6568542 0 3-1.3431458 3-3v-4c0-1.65685425-1.3431458-3-3-3s-3 1.34314575-3 3v4c0 1.6568542 1.3431458 3 3 3zm-1-7c0-.55228475.4477153-1 1-1s1 .44771525 1 1v4c0 .5522847-.4477153 1-1 1s-1-.4477153-1-1z"/><path id="Shape" d="m43 16c1.6568542 0 3-1.3431458 3-3 0-.5522847-.4477153-1-1-1s-1 .4477153-1 1-.4477153 1-1 1-1-.4477153-1-1v-4c0-.55228475.4477153-1 1-1s1 .44771525 1 1 .4477153 1 1 1 1-.44771525 1-1c0-1.65685425-1.3431458-3-3-3s-3 1.34314575-3 3v4c0 1.6568542 1.3431458 3 3 3z"/><path id="Shape" d="m5 35v18c0 1.1045695.8954305 2 2 2h46c1.1045695 0 2-.8954305 2-2v-18c0-1.1045695-.8954305-2-2-2h-46c-1.1045695 0-2 .8954305-2 2zm2 6h3c.5522847 0 1-.4477153 1-1s-.4477153-1-1-1h-3v-4h36v4h-17c-.5522847 0-1 .4477153-1 1s.4477153 1 1 1h17v12h-36zm38 12v-12h8v12zm8-14h-8v-4h8z"/><path id="Shape" d="m6 25c0 .5522847.44771525 1 1 1h13c.5522847 0 1-.4477153 1-1s-.4477153-1-1-1h-13c-.55228475 0-1 .4477153-1 1z"/><path id="Shape" d="m20 30c.5522847 0 1-.4477153 1-1s-.4477153-1-1-1h-13c-.55228475 0-1 .4477153-1 1s.44771525 1 1 1z"/><path id="Shape" d="m21 41c0 .5522847.4477153 1 1 1s1-.4477153 1-1c0-1.932-1.721-3.547-4-3.919v-.081c0-.5522847-.4477153-1-1-1s-1 .4477153-1 1v.081c-2.279.372-4 1.987-4 3.919s1.721 3.547 4 3.919v3.954c-1.15-.283-2-1.022-2-1.873 0-.5522847-.4477153-1-1-1s-1 .4477153-1 1c0 1.932 1.721 3.547 4 3.919v.081c0 .5522847.4477153 1 1 1s1-.4477153 1-1v-.081c2.279-.372 4-1.987 4-3.919s-1.721-3.547-4-3.919v-3.954c1.15.283 2 1.022 2 1.873zm-6 0c0-.851.85-1.59 2-1.873v3.746c-1.15-.283-2-1.022-2-1.873zm6 6c0 .851-.85 1.59-2 1.873v-3.746c1.15.283 2 1.022 2 1.873z"/></g></g></g></svg>