<?xml version="1.0" encoding="iso-8859-1"?>
<!-- Generator: Adobe Illustrator 19.0.0, SVG Export Plug-In . SVG Version: 6.00 Build 0)  -->
<svg version="1.1" id="Capa_1" xmlns="http://www.w3.org/2000/svg" xmlns:xlink="http://www.w3.org/1999/xlink" x="0px" y="0px"
	 viewBox="0 0 512 512" style="enable-background:new 0 0 512 512;" xml:space="preserve">
<path style="fill:#E7ECED;" d="M435.2,17.067H76.8H34.142c-14.14,0-25.609,11.469-25.609,25.609v298.658H76.8h128h102.4h128h68.267
	V42.675c0-14.14-11.469-25.609-25.609-25.609H435.2z"/>
<rect x="42.667" y="51.2" style="fill:#28384C;" width="426.667" height="273.067"/>
<polygon style="fill:#E7ECED;" points="119.467,85.333 119.467,247.467 322.62,247.467 358.4,211.61 358.4,85.333 "/>
<g>
	<path style="fill:#AFB6BB;" d="M477.858,392.533H34.142c-14.14,0-25.609-11.469-25.609-25.609v-42.658h494.933v42.658
		C503.467,381.065,491.998,392.533,477.858,392.533z"/>
	<path style="fill:#AFB6BB;" d="M366.933,494.933H145.067c-9.429,0-17.067-7.637-17.067-17.067l0,0
		c0-9.429,7.637-17.067,17.067-17.067h221.867c9.429,0,17.067,7.637,17.067,17.067l0,0C384,487.296,376.363,494.933,366.933,494.933
		z"/>
</g>
<path style="fill:#6C797A;" d="M298.667,392.533h-85.333c0,37.734-13.466,68.267-51.2,68.267h187.733
	C312.132,460.8,298.667,430.268,298.667,392.533z"/>
<path style="fill:#7383BF;" d="M401.724,266.001l-25.83-25.83c-0.444-0.444-0.444-1.161,0-1.604l16.691-16.7l-85.333-25.6
	l25.6,85.333l16.265-16.265c1.015-1.015,2.662-1.015,3.686,0l24.789,24.798L401.724,266.001z"/>
<rect x="119.467" y="85.333" style="fill:#556080;" width="238.933" height="42.667"/>
<rect x="153.6" y="179.2" style="fill:#DD352E;" width="68.267" height="34.133"/>
<g>
	<path style="fill:#4D007E;" d="M503.467,332.8H8.533c-4.71,0-8.533-3.823-8.533-8.533V42.675C0,23.851,15.317,8.533,34.142,8.533
		h443.716C496.683,8.533,512,23.851,512,42.675v281.591C512,328.977,508.177,332.8,503.467,332.8z M17.067,315.733h477.867V42.675
		c0-9.421-7.663-17.075-17.075-17.075H34.142c-9.412,0-17.075,7.654-17.075,17.075V315.733z"/>
	<path style="fill:#4D007E;" d="M477.858,401.067H34.142C15.317,401.067,0,385.749,0,366.925v-42.658
		c0-4.71,3.823-8.533,8.533-8.533h494.933c4.71,0,8.533,3.823,8.533,8.533v42.658C512,385.749,496.683,401.067,477.858,401.067z
		 M17.067,332.8v34.125c0,9.421,7.663,17.075,17.075,17.075h443.716c9.412,0,17.075-7.654,17.075-17.075V332.8H17.067z"/>
	<path style="fill:#4D007E;" d="M281.6,366.933h-51.2c-4.71,0-8.533-3.823-8.533-8.533s3.823-8.533,8.533-8.533h51.2
		c4.71,0,8.533,3.823,8.533,8.533S286.31,366.933,281.6,366.933z"/>
	<path style="fill:#4D007E;" d="M469.333,332.8H42.667c-4.71,0-8.533-3.823-8.533-8.533V51.2c0-4.71,3.823-8.533,8.533-8.533
		h426.667c4.71,0,8.533,3.823,8.533,8.533v273.067C477.867,328.977,474.044,332.8,469.333,332.8z M51.2,315.733h409.6v-256H51.2
		V315.733z"/>
	<path style="fill:#4D007E;" d="M366.933,503.467H145.067c-14.114,0-25.6-11.486-25.6-25.6s11.486-25.6,25.6-25.6h221.867
		c14.114,0,25.6,11.486,25.6,25.6S381.047,503.467,366.933,503.467z M145.067,469.333c-4.71,0-8.533,3.831-8.533,8.533
		c0,4.702,3.823,8.533,8.533,8.533h221.867c4.71,0,8.533-3.831,8.533-8.533c0-4.702-3.823-8.533-8.533-8.533H145.067z"/>
	<path style="fill:#4D007E;" d="M349.867,469.333H162.133c-4.71,0-8.533-3.823-8.533-8.533s3.823-8.533,8.533-8.533
		c28.314,0,42.667-20.096,42.667-59.733c0-4.71,3.823-8.533,8.533-8.533h85.333c4.71,0,8.533,3.823,8.533,8.533
		c0,39.637,14.353,59.733,42.667,59.733c4.71,0,8.533,3.823,8.533,8.533S354.577,469.333,349.867,469.333z M203.699,452.267h104.61
		c-10.513-11.639-16.7-28.971-17.937-51.2h-68.736C220.39,423.296,214.204,440.627,203.699,452.267z"/>
	<path style="fill:#4D007E;" d="M377.591,298.667c-2.261,0-4.437-0.896-6.033-2.5l-20.599-20.608l-12.066,12.075
		c-2.125,2.125-5.222,2.961-8.124,2.244c-2.91-0.734-5.222-2.944-6.084-5.828l-25.6-85.333c-0.905-3.004-0.085-6.263,2.142-8.482
		c2.219-2.219,5.47-3.046,8.482-2.142l85.333,25.6c2.876,0.87,5.086,3.174,5.82,6.084c0.734,2.91-0.119,5.999-2.244,8.124
		l-11.46,11.46l20.599,20.599c3.337,3.337,3.337,8.73,0,12.066l-24.132,24.141C382.029,297.771,379.853,298.667,377.591,298.667z
		 M350.959,256.043c2.85,0,5.7,1.084,7.876,3.26l18.756,18.765l12.066-12.075l-19.797-19.797c-1.826-1.809-2.833-4.25-2.833-6.835
		c0-2.577,0.998-5.001,2.816-6.827l6.605-6.605l-56.465-16.939l16.939,56.465l6.161-6.161
		C345.25,257.135,348.1,256.043,350.959,256.043z M381.909,234.112l0.026,0.026C381.926,234.129,381.918,234.121,381.909,234.112z"
		/>
	<path style="fill:#4D007E;" d="M358.4,136.533H119.467c-4.71,0-8.533-3.823-8.533-8.533V85.333c0-4.71,3.823-8.533,8.533-8.533
		H358.4c4.71,0,8.533,3.823,8.533,8.533V128C366.933,132.71,363.11,136.533,358.4,136.533z M128,119.467h221.867v-25.6H128V119.467z
		"/>
	<path style="fill:#4D007E;" d="M221.867,221.867H153.6c-4.71,0-8.533-3.823-8.533-8.533V179.2c0-4.71,3.823-8.533,8.533-8.533
		h68.267c4.71,0,8.533,3.823,8.533,8.533v34.133C230.4,218.044,226.577,221.867,221.867,221.867z M162.133,204.8h51.2v-17.067h-51.2
		V204.8z"/>
	<path style="fill:#4D007E;" d="M322.611,256H119.467c-4.71,0-8.533-3.823-8.533-8.533V85.333c0-4.71,3.823-8.533,8.533-8.533H358.4
		c4.71,0,8.533,3.823,8.533,8.533V211.61c0,2.697-1.271,5.239-3.439,6.844c-2.159,1.613-4.958,2.108-7.543,1.331l-35.968-10.795
		l10.803,36.019c0.777,2.586,0.282,5.385-1.331,7.552C327.851,254.729,325.316,256,322.611,256z M128,238.933h183.142
		l-12.066-40.209c-0.905-3.012-0.085-6.263,2.142-8.491c2.219-2.219,5.47-3.046,8.482-2.142l40.166,12.049V93.867H128V238.933z"/>
</g>
<g>
</g>
<g>
</g>
<g>
</g>
<g>
</g>
<g>
</g>
<g>
</g>
<g>
</g>
<g>
</g>
<g>
</g>
<g>
</g>
<g>
</g>
<g>
</g>
<g>
</g>
<g>
</g>
<g>
</g>
</svg>
