<svg id="Layer_1_1_" enable-background="new 0 0 64 64" height="512" viewBox="0 0 64 64" width="512" xmlns="http://www.w3.org/2000/svg"><path d="m50 19c6.08 0 11 4.92 11 11s-4.92 11-11 11h-35c-6.63 0-12-5.37-12-12 0-6.38 4.98-11.58 11.26-11.96-.17-.82-.26-1.67-.26-2.54 0-6.9 5.6-12.5 12.5-12.5s12.5 5.6 12.5 12.5c0 .21-.02.41-.03.61.33-.07.68-.11 1.03-.11 2.76 0 5 2.24 5 5 0 .08-.02.15-.02.22 1.5-.77 3.21-1.22 5.02-1.22z" fill="#732de2"/><path d="m35.91 25.73c.05.42.09.84.09 1.27s-.04.85-.09 1.27l-2.22.91c-.17.6-.41 1.18-.71 1.72l.92 2.21c-.52.67-1.12 1.27-1.79 1.79l-2.21-.92c-.54.3-1.12.54-1.72.71l-.91 2.22c-.42.05-.84.09-1.27.09s-.85-.04-1.27-.09l-.91-2.22c-.6-.17-1.18-.41-1.72-.71l-2.21.92c-.67-.52-1.27-1.12-1.79-1.79l.92-2.21c-.3-.54-.54-1.12-.71-1.72l-2.22-.91c-.05-.42-.09-.84-.09-1.27s.04-.85.09-1.27l2.22-.91c.17-.6.41-1.18.71-1.72l-.92-2.21c.52-.67 1.12-1.27 1.79-1.79l2.21.92c.54-.3 1.12-.54 1.72-.71l.91-2.22c.42-.05.84-.09 1.27-.09s.85.04 1.27.09l.91 2.22c.6.17 1.18.41 1.72.71l2.21-.92c.67.52 1.27 1.12 1.79 1.79l-.92 2.21c.3.54.54 1.12.71 1.72zm-5.91 1.27c0-2.21-1.79-4-4-4s-4 1.79-4 4 1.79 4 4 4 4-1.79 4-4z" fill="#f4b34a"/><path d="m28.666 8.371c-.694-.246-1.423-.371-2.166-.371v-2c.972 0 1.925.164 2.834.486z" fill="#f9f1e4"/><path d="m20 14.5h-2c0-3.592 2.277-6.812 5.666-8.014l.669 1.885c-2.593.919-4.335 3.382-4.335 6.129z" fill="#f9f1e4"/><path d="m51 33v-2h-1.101c-.04-.198-.113-.383-.177-.572l.974-.562-1-1.732-.973.562c-.132-.148-.27-.287-.419-.419l.562-.973-1.732-1-.562.974c-.189-.063-.374-.136-.572-.177v-1.101h-2v1.101c-.198.04-.383.113-.572.177l-.562-.974-1.732 1 .562.973c-.148.132-.287.27-.419.419l-.973-.562-1 1.732.974.562c-.063.189-.136.374-.177.572h-1.101v2h1.101c.04.198.113.383.177.572l-.974.562 1 1.732.973-.562c.132.148.27.287.419.419l-.562.973 1.732 1 .562-.974c.189.063.374.136.572.177v1.101h2v-1.101c.198-.04.383-.113.572-.177l.562.974 1.732-1-.562-.973c.148-.132.287-.27.419-.419l.973.562 1-1.732-.974-.562c.063-.189.136-.374.177-.572zm-3-1c0 1.654-1.346 3-3 3s-3-1.346-3-3 1.346-3 3-3 3 1.346 3 3z" fill="#f4b34a"/><g fill="#6c253d"><path d="m25 50h-7v-2h5v-7h2z"/><path d="m13 48h3v2h-3z"/><path d="m7 48h4v2h-4z"/><path d="m29 54h-6v-2h4v-5h2z"/><path d="m27 41h2v4h-2z"/><path d="m18 52h3v2h-3z"/><path d="m13 52h3v2h-3z"/><path d="m33 58h-4v-2h2v-15h2z"/><path d="m19 56h8v2h-8z"/><path d="m10 56h7v2h-7z"/><path d="m15 60h2v2h-2z"/><path d="m19 60h2v2h-2z"/><path d="m23 60h2v2h-2z"/><path d="m37 62h-10v-2h8v-4h2z"/><path d="m35 49h2v5h-2z"/><path d="m35 41h2v6h-2z"/><path d="m50 50h-7v-9h2v7h5z"/><path d="m52 48h5v2h-5z"/></g><circle cx="59" cy="49" fill="#e58842" r="3"/><circle cx="8" cy="57" fill="#e58842" r="3"/><circle cx="5" cy="49" fill="#e58842" r="3"/><path d="m45 54h-6v-13h2v11h4z" fill="#6c253d"/><path d="m47 52h3v2h-3z" fill="#6c253d"/><path d="m52 52h3v2h-3z" fill="#6c253d"/><path d="m26 21c-3.314 0-6 2.686-6 6s2.686 6 6 6 6-2.686 6-6-2.686-6-6-6zm0 10c-2.21 0-4-1.79-4-4s1.79-4 4-4 4 1.79 4 4-1.79 4-4 4z" fill="#e58842"/><path d="m23 41h2v2h-2z" fill="#561c32"/><path d="m27 41h2v2h-2z" fill="#561c32"/><path d="m31 41h2v2h-2z" fill="#561c32"/><path d="m35 41h2v2h-2z" fill="#561c32"/><path d="m39 41h2v2h-2z" fill="#561c32"/><path d="m43 41h2v2h-2z" fill="#561c32"/></svg>