<svg height="495pt" viewBox="0 -21 495.4262 495" width="495pt" xmlns="http://www.w3.org/2000/svg"><path d="m397.71875 192.625c-.652344.007812-1.300781.019531-1.953125.019531-51.003906-.015625-92.417969-41.230469-92.671875-92.238281-.257812-51.003906 40.742188-92.636719 91.746094-93.160156 51.003906-.519532 92.847656 40.257812 93.640625 91.257812s-39.769531 93.058594-90.761719 94.121094zm41.46875-38.902344v-29.890625c.003906-11.6875-9.472656-21.167969-21.160156-21.167969-5.320313 7.238282-13.765625 11.511719-22.746094 11.511719s-17.425781-4.273437-22.742188-11.511719c-11.6875.003907-21.15625 9.484376-21.152343 21.167969v29.890625zm-20.378906-84.078125c0-12.992187-10.53125-23.519531-23.519532-23.519531-12.992187 0-23.523437 10.527344-23.523437 23.519531 0 12.988281 10.53125 23.519531 23.523437 23.519531 12.988282 0 23.519532-10.53125 23.519532-23.519531zm0 0" fill="#00acea"/><path d="m439.1875 123.832031v29.890625h-87.800781v-29.890625c-.003907-11.683593 9.464843-21.164062 21.152343-21.167969 5.316407 7.238282 13.761719 11.511719 22.742188 11.511719s17.425781-4.273437 22.746094-11.511719c11.6875 0 21.164062 9.480469 21.160156 21.167969zm0 0" fill="#00efd1"/><path d="m429.476562 224.382812c22.539063 22.539063 21.261719 60.378907-2.859374 84.550782-29.308594 29.359375-62.578126 62.699218-89.949219 90.050781-1.203125-2.832031-2.945313-5.40625-5.128907-7.570313l-22.613281-22.609374c8.832031 8.308593 22.261719 8.589843 30.320313.527343 3.8125-3.84375 5.929687-9.054687 5.882812-14.46875-.050781-6.164062-2.539062-12.054687-6.921875-16.390625l-90.488281-90.609375 10.589844-10.601562-26.78125 2.621093c-18.019532 1.769532-33.109375-11.210937-33.859375-29.128906l-.769531-8.242187 50.820312-16.027344 75.226562-23.730469c1.242188-.390625 2.472657-.742187 3.710938-1.039062 17.5625 19.707031 42.714844 30.960937 69.109375 30.929687.652344 0 1.300781-.011719 1.953125-.019531zm0 0" fill="#fedb41"/><path d="m418.808594 69.644531c0 12.988281-10.53125 23.519531-23.519532 23.519531-12.992187 0-23.523437-10.53125-23.523437-23.519531 0-12.992187 10.53125-23.519531 23.523437-23.519531 12.988282 0 23.519532 10.527344 23.519532 23.519531zm0 0" fill="#00efd1"/><path d="m158.777344 398.992188c-27.359375-27.339844-60.648438-60.699219-89.960938-90.058594-24.121094-24.171875-25.398437-62.011719-2.859375-84.550782l31.761719-31.757812c.648438.007812 1.296875.019531 1.949219.019531 26.394531.03125 51.546875-11.222656 69.109375-30.929687 1.238281.308594 2.480468.648437 3.710937 1.039062l75.230469 23.730469-50.820312 16.027344.769531 8.242187c.75 17.917969 15.839843 30.898438 33.859375 29.128906l26.78125-2.621093-10.589844 10.601562 90.488281 90.609375c4.382813 4.335938 6.871094 10.226563 6.921875 16.390625.046875 5.414063-2.070312 10.625-5.882812 14.46875-8.058594 8.0625-21.488282 7.78125-30.320313-.527343l22.613281 22.609374c2.183594 2.164063 3.925782 4.738282 5.128907 7.570313 3.359375 7.949219 2.050781 17.167969-4.070313 23.289063l-.351562.351562c-6.140625 6.128906-15.367188 7.429688-23.320313 4.046875-2.824219-1.199219-5.386719-2.933594-7.546875-5.109375l-13.089844-13.089844c8.667969 8.671875 9.269532 22.171875 1.46875 30.441406-.128906.148438-.269531.289063-.410156.429688l-.03125.039062c-8.230468 8.230469-22.050781 7.75-30.871094-1.070312l-10.726562-10.71875-25.453125-25.449219c8.820313 8.820313 9.300781 22.636719 1.0625 30.867188l-.332031.332031c-4.453125 4.390625-10.671875 6.503906-16.878906 5.730469-5.28125-.597657-10.195313-2.980469-13.941407-6.75-1.796875-1.792969-3.699219-3.679688-5.667969-5.652344-8.0625-8.027344-17.480468-17.429687-27.730468-27.679687zm0 0" fill="#f4b844"/><path d="m308.925781 426.671875c-1.96875 1.972656-3.867187 3.859375-5.667969 5.652344-3.613281 3.628906-8.316406 5.980469-13.390624 6.6875l-.109376-.097657c7.800782-8.269531 7.199219-21.769531-1.46875-30.441406l13.089844 13.089844c2.160156 2.175781 4.722656 3.910156 7.546875 5.109375zm0 0" fill="#fedb41"/><path d="m222.265625 402.144531 25.453125 25.449219-10.730469 10.71875c-8.820312 8.820312-22.640625 9.300781-30.871093 1.070312l-.03125-.039062.03125-.269531c6.207031.773437 12.425781-1.339844 16.878906-5.730469l.332031-.332031c8.238281-8.230469 7.757813-22.046875-1.0625-30.867188zm0 0" fill="#fedb41"/><path d="m186.507812 426.671875c-7.960937 3.382813-17.191406 2.082031-23.320312-4.046875l-.351562-.351562c-6.117188-6.121094-7.429688-15.339844-4.058594-23.28125 10.25 10.25 19.667968 19.652343 27.730468 27.679687zm0 0" fill="#fedb41"/><path d="m97.71875 192.625c-51.011719-1.0625-91.585938-43.132812-90.792969-94.148438.792969-51.015624 42.648438-91.808593 93.667969-91.285156 51.019531.523438 92.03125 42.164063 91.777344 93.1875-.257813 51.019532-41.683594 92.25-92.703125 92.265625-.652344 0-1.300781-.011719-1.949219-.019531zm45.359375-38.902344v-29.890625c.003906-11.6875-9.472656-21.167969-21.160156-21.167969-5.316407 7.234376-13.761719 11.507813-22.742188 11.507813-8.976562 0-17.421875-4.273437-22.738281-11.507813-11.691406 0-21.164062 9.480469-21.160156 21.167969v29.890625zm-20.382813-84.078125c0-12.992187-10.527343-23.519531-23.519531-23.519531-12.988281 0-23.519531 10.527344-23.519531 23.519531 0 12.988281 10.53125 23.519531 23.519531 23.519531 12.992188 0 23.519531-10.53125 23.519531-23.519531zm0 0" fill="#00efd1"/><path d="m143.078125 123.832031v29.890625h-87.800781v-29.890625c-.003906-11.6875 9.46875-21.167969 21.160156-21.167969 5.316406 7.234376 13.761719 11.507813 22.738281 11.507813 8.980469 0 17.425781-4.273437 22.742188-11.507813 11.6875 0 21.164062 9.480469 21.160156 21.167969zm0 0" fill="#00acea"/><path d="m122.695312 69.644531c0 12.988281-10.527343 23.519531-23.519531 23.519531-12.988281 0-23.519531-10.53125-23.519531-23.519531 0-12.992187 10.53125-23.519531 23.519531-23.519531 12.992188 0 23.519531 10.527344 23.519531 23.519531zm0 0" fill="#00acea"/><g fill="#083863"><path d="m395.289062 100.164062c16.855469 0 30.519532-13.664062 30.519532-30.519531s-13.664063-30.519531-30.519532-30.519531c-16.859374 0-30.523437 13.664062-30.523437 30.519531.019531 16.847657 13.671875 30.5 30.523437 30.519531zm0-47.039062c9.121094 0 16.519532 7.394531 16.519532 16.519531 0 9.121094-7.398438 16.519531-16.519532 16.519531-9.125 0-16.523437-7.398437-16.523437-16.519531.011719-9.121093 7.402344-16.511719 16.523437-16.519531zm0 0"/><path d="m417.792969 95.664062c-2.195313 0-4.253907 1.066407-5.523438 2.855469-1.25 1.730469-2.761719 3.261719-4.476562 4.53125-4.527344 3.332031-10.195313 4.730469-15.753907 3.878907-5.558593-.851563-10.550781-3.878907-13.875-8.410157-1.25-1.789062-3.289062-2.855469-5.46875-2.855469-7.449218.015626-14.582031 2.996094-19.832031 8.28125-5.25 5.285157-8.179687 12.441407-8.144531 19.886719v29.890625c-.058594 1.773438.632812 3.484375 1.902344 4.722656 1.265625 1.238282 2.996094 1.886719 4.765625 1.789063h87.800781c1.753906.089844 3.46875-.5625 4.710938-1.804687 1.246093-1.242188 1.90625-2.949219 1.820312-4.707032v-29.890625c.042969-7.441406-2.875-14.59375-8.117188-19.882812-5.238281-5.285157-12.367187-8.265625-19.808593-8.285157zm13.925781 50.570313h-73v-22.402344c-.066406-6.625 4.507812-12.398437 10.972656-13.847656 12.136719 13.054687 32.132813 14.929687 46.480469 4.359375 1.6875-1.300781 3.246094-2.757812 4.648437-4.359375 6.453126 1.457031 11 7.234375 10.898438 13.847656zm0 0"/><path d="m395.765625.214844c-37.378906-.011719-71.625 20.894531-88.699219 54.148437-17.078125 33.25-14.113281 73.261719 7.675782 103.636719l-67.023438 21.144531-67.027344-21.144531c25.835938-36.09375 24.683594-84.925781-2.828125-119.761719-27.511719-34.835937-74.746093-47.277343-115.847656-30.511719-41.101563 16.765626-66.15625 58.691407-61.453125 102.832032s38.03125 79.847656 81.742188 87.574218l-21.300782 21.300782c-25.222656 25.222656-23.941406 67.589844 2.855469 94.445312l13.101563 13.121094c25.179687 25.222656 51.175781 51.265625 73.839843 73.917969-2.410156 9.402343.277344 19.378906 7.085938 26.296875l.351562.355468c5.15625 5.121094 12.140625 7.976563 19.410157 7.933594 2.339843-.007812 4.675781-.292968 6.949218-.851562l2.449219 2.4375.191406.191406c4.183594 4.171875 9.480469 7.050781 15.257813 8.28125 5 4.359375 11.421875 6.738281 18.050781 6.691406.339844 0 .683594-.007812 1.027344-.019531 7.679687-.296875 14.960937-3.503906 20.359375-8.972656l5.785156-5.78125 5.78125 5.78125c5.398438 5.46875 12.679688 8.675781 20.359375 8.972656.34375.011719.6875.015625 1.027344.015625 6.628906.050781 13.050781-2.328125 18.046875-6.683594 5.777344-1.242187 11.074218-4.117187 15.261718-8.285156l.191407-.191406 2.449219-2.4375c2.273437.558594 4.605468.84375 6.941406.847656 7.273437.042969 14.261718-2.8125 19.421875-7.933594l.347656-.347656c6.804687-6.925781 9.496094-16.902344 7.089844-26.308594 22.59375-22.578125 48.480469-48.515625 73.5625-73.640625l13.371093-13.398437c26.800782-26.855469 28.078126-69.222656 2.855469-94.445313l-21.296875-21.300781c50.878906-9.027344 86.429688-55.425781 81.914063-106.902344-4.511719-51.476562-47.601563-90.976562-99.277344-91.007812zm-381.820313 99.707031c-.121093-34.75 20.722657-66.144531 52.796876-79.519531 32.078124-13.375 69.050781-6.085938 93.652343 18.457031 24.601563 24.546875 31.972657 61.503906 18.671875 93.609375-13.300781 32.105469-44.648437 53.023438-79.398437 52.976562-.585938 0-1.167969-.210937-1.753907-.210937h-.070312c-22.507812 0-43.601562-9.402344-59.378906-25.488281-15.753906-15.917969-24.566406-37.425782-24.519532-59.824219zm218.089844 333.441406c-.050781.050781-.105468.101563-.15625.144531 1.644532-2.550781 2.84375-5.363281 3.546875-8.316406l2.394531 2.394532zm95.609375-16.035156-.34375.339844c-3.929687 3.925781-10.070312 4.929687-15.65625 2.554687-1.988281-.847656-3.796875-2.074218-5.316406-3.609375l-101.210937-101.210937-9.898438 9.902344 88.117188 88.117187c5.914062 5.914063 6.511718 15.195313 1.328124 20.6875-.066406.074219-.074218.082031-.136718.15625l-.128906.128906c-.058594.054688-.117188.117188-.175782.179688-2.652344 2.523437-6.21875 3.851562-9.875 3.671875-4.140625-.175782-8.054687-1.925782-10.953125-4.886719l-88.117187-88.117187-9.898438 9.902343 51.945313 51.945313c2.957031 2.898437 4.703125 6.8125 4.878906 10.945312.1875 3.730469-1.199219 7.367188-3.820313 10.023438l-.328124.332031c-2.964844 2.886719-7.082032 4.253906-11.183594 3.71875-3.695313-.433594-7.132813-2.109375-9.753906-4.753906l-.191407-.191407c-1.738281-1.726562-3.5625-3.546874-5.472656-5.453124-8.058594-8.027344-17.476563-17.425782-27.722656-27.671876-23.351563-23.335937-50.554688-50.582031-76.859375-76.933593l-13.097656-13.117188c-21.351563-21.394531-22.636719-54.886719-2.867188-74.65625l29.699219-29.699219c26.507812-.265624 51.820312-11.066406 70.355469-30.019531l53.484374 16.871094-29.652343 9.347656c-3.148438.992188-5.171875 4.046875-4.867188 7.328125l.757813 8.070313c.382812 10.261719 4.992187 19.910156 12.734375 26.65625 7.9375 6.855469 18.371093 10.105469 28.800781 8.964843l4.191406-.410156 96.84375 96.96875c3.066406 3.03125 4.820313 7.144532 4.882813 11.453125.042969 3.558594-1.332031 6.984375-3.828125 9.519531-5.402344 5.398438-14.4375 5.101563-20.574219-.675781l-33.796875-33.789062c-22.847656-22.839844-42.707031-42.695313-44.664062-44.65625l-9.914063 9.882812c1.957031 1.964844 21.824219 21.824219 44.683594 44.675781l33.390625 33.386719-.003906.007813c.089843.089844.183593.171875.277343.261718l22.898438 22.902344c1.542969 1.523438 2.773437 3.335938 3.621093 5.332032 2.34375 5.566406 1.335938 11.695312-2.582031 15.617187zm94.019531-113.339844-13.371093 13.394531c-23.9375 23.980469-48.613281 48.699219-70.449219 70.527344-.4375-.492187-.886719-.976562-1.355469-1.445312l-5.015625-5.015625c12.222656-2.992188 20.773438-14.003907 20.65625-26.585938-.03125-8.023437-3.257812-15.703125-8.96875-21.335937l-85.550781-85.664063 5.648437-5.652343c2.089844-2.089844 2.640626-5.269532 1.378907-7.941407-1.265625-2.671875-4.070313-4.261719-7.011719-3.972656l-26.78125 2.621094c-6.597656.746093-13.203125-1.285157-18.246094-5.601563-4.871094-4.273437-7.746094-10.378906-7.9375-16.855468 0-.121094-.011718-.242188-.023437-.363282l-.242188-2.613281 120.078125-37.875c18.53125 18.953125 43.84375 29.757813 70.351563 30.023437l29.699219 29.699219c19.773437 19.769531 18.492187 53.261719-2.859376 74.65625zm35.304688-144.046875c-15.664062 16.050782-37.027344 25.277344-59.453125 25.683594-.582031.007812-1.167969.019531-1.753906.019531-24.390625-.015625-47.625-10.414062-63.886719-28.59375l-.007812-.007812c-31.054688-34.75-28.652344-87.945313 5.40625-119.753907 34.058593-31.808593 87.292968-30.574218 119.84375 2.777344 32.546874 33.355469 32.480468 86.605469-.148438 119.875zm0 0"/><path d="m99.175781 100.164062c16.855469 0 30.519531-13.664062 30.519531-30.519531s-13.664062-30.519531-30.519531-30.519531-30.519531 13.664062-30.519531 30.519531c.019531 16.847657 13.671875 30.5 30.519531 30.519531zm0-47.039062c9.125 0 16.519531 7.394531 16.519531 16.519531 0 9.121094-7.394531 16.519531-16.519531 16.519531-9.121093 0-16.519531-7.398437-16.519531-16.519531.011719-9.121093 7.402344-16.511719 16.519531-16.519531zm0 0"/><path d="m149.71875 153.722656v-29.890625c.03125-7.449219-2.898438-14.601562-8.148438-19.886719-5.25-5.285156-12.382812-8.265624-19.832031-8.28125-2.203125 0-4.269531 1.0625-5.550781 2.851563-1.253906 1.734375-2.769531 3.265625-4.492188 4.535156-9.4375 6.925781-22.703124 4.898438-29.640624-4.53125-1.222657-1.785156-3.246094-2.851562-5.410157-2.855469-7.441406.019532-14.570312 3-19.8125 8.285157-5.238281 5.285156-8.160156 12.441406-8.113281 19.882812v29.890625c-.082031 1.757813.585938 3.46875 1.832031 4.710938 1.25 1.242187 2.96875 1.894531 4.726563 1.800781h87.800781c1.765625.09375 3.492187-.554687 4.753906-1.792969 1.261719-1.238281 1.945313-2.949218 1.886719-4.71875zm-14-7.488281h-73v-22.402344c-.089844-6.617187 4.46875-12.394531 10.929688-13.847656 12.144531 13.03125 32.125 14.90625 46.480468 4.359375 1.695313-1.300781 3.261719-2.757812 4.671875-4.359375 6.457031 1.453125 11.011719 7.230469 10.917969 13.847656zm0 0"/></g></svg>